<svg width="1280" height="736" viewBox="0 0 1280 736" fill="none" xmlns="http://www.w3.org/2000/svg">
<path fill-rule="evenodd" clip-rule="evenodd" d="M652.045 259.809C649.41 271.163 660.848 280.664 671.526 275.991L824.252 209.155C826.641 208.11 827.731 205.325 826.685 202.936C825.639 200.546 822.855 199.457 820.465 200.502L667.739 267.339C664.18 268.896 660.367 265.729 661.246 261.945L701.784 87.2962C702.576 83.8865 706.672 82.4927 709.379 84.7121L836.398 188.858C842.448 193.819 851.375 192.936 856.336 186.886L866.816 174.104C871.777 168.053 870.894 159.127 864.843 154.165L730.107 43.6914C725.861 40.2105 719.598 40.8302 716.117 45.0756L704.454 59.3C702.8 61.3169 703.095 64.2925 705.112 65.9461C707.129 67.5998 710.104 67.3054 711.758 65.2885L723.421 51.0641C723.594 50.8525 723.907 50.8216 724.118 50.9951L858.855 161.469C860.872 163.123 861.166 166.098 859.512 168.115L849.032 180.897C847.379 182.914 844.403 183.208 842.386 181.555L715.367 77.4083C707.247 70.7501 694.958 74.9314 692.584 85.1607L652.045 259.809ZM701.977 203.836C705.285 199.803 711.236 199.214 715.27 202.521C719.303 205.829 719.892 211.78 716.585 215.814C713.277 219.847 707.326 220.436 703.293 217.129C699.259 213.821 698.67 207.87 701.977 203.836ZM759.82 177.979C763.127 173.946 769.078 173.357 773.112 176.664C777.146 179.972 777.735 185.923 774.427 189.957C771.12 193.99 765.169 194.579 761.135 191.272C757.101 187.964 756.513 182.013 759.82 177.979ZM715.997 142.048C719.305 138.014 725.256 137.426 729.29 140.733C733.323 144.04 733.912 149.992 730.605 154.025C727.297 158.059 721.346 158.648 717.313 155.34C713.279 152.033 712.69 146.082 715.997 142.048ZM708.694 136.06C715.308 127.992 727.211 126.814 735.278 133.429C743.346 140.044 744.523 151.946 737.909 160.014C731.294 168.081 719.392 169.259 711.324 162.644C703.256 156.029 702.079 144.127 708.694 136.06ZM779.101 169.36C771.033 162.746 759.131 163.923 752.516 171.991C745.901 180.058 747.079 191.961 755.147 198.576C763.214 205.19 775.116 204.013 781.731 195.945C788.346 187.878 787.168 175.975 779.101 169.36ZM721.258 195.217C713.191 188.603 701.288 189.78 694.674 197.848C688.059 205.915 689.236 217.818 697.304 224.432C705.372 231.047 717.274 229.87 723.889 221.802C730.503 213.735 729.326 201.832 721.258 195.217Z" fill="#895129"/>
<mask id="path-2-inside-1_65_23" fill="white">
<path d="M309.682 113.76C308.664 112.906 308.532 111.388 309.386 110.37L312.48 106.684C313.334 105.667 314.852 105.534 315.87 106.389C316.887 107.243 317.02 108.761 316.166 109.778L313.072 113.464C312.217 114.482 310.7 114.614 309.682 113.76Z"/>
<path d="M297.89 122.552C297.036 123.57 297.168 125.088 298.186 125.942C299.204 126.796 300.721 126.664 301.576 125.646L304.67 121.961C305.524 120.943 305.392 119.425 304.374 118.571C303.356 117.716 301.838 117.849 300.984 118.867L297.89 122.552Z"/>
<path d="M312.69 126.091C311.836 127.109 311.968 128.626 312.986 129.481C314.004 130.335 315.522 130.203 316.376 129.185L319.47 125.499C320.324 124.481 320.192 122.964 319.174 122.109C318.156 121.255 316.639 121.387 315.784 122.405L312.69 126.091Z"/>
<path d="M325.817 110.454C324.962 111.471 325.095 112.989 326.113 113.844C327.13 114.698 328.648 114.565 329.502 113.548L332.596 109.862C333.451 108.844 333.318 107.326 332.3 106.472C331.283 105.618 329.765 105.75 328.911 106.768L325.817 110.454Z"/>
<path d="M340.913 117.382C339.895 116.528 339.763 115.01 340.617 113.992L343.711 110.307C344.565 109.289 346.083 109.156 347.101 110.011C348.118 110.865 348.251 112.383 347.396 113.4L344.303 117.086C343.448 118.104 341.931 118.236 340.913 117.382Z"/>
<path d="M351.042 122.743C350.187 123.761 350.32 125.279 351.338 126.133C352.355 126.987 353.873 126.855 354.727 125.837L357.821 122.151C358.676 121.134 358.543 119.616 357.525 118.762C356.508 117.907 354.99 118.04 354.136 119.057L351.042 122.743Z"/>
<path d="M330.37 129.412C329.352 128.558 329.22 127.04 330.074 126.023L333.168 122.337C334.022 121.319 335.54 121.187 336.558 122.041C337.575 122.895 337.708 124.413 336.854 125.431L333.76 129.116C332.905 130.134 331.388 130.267 330.37 129.412Z"/>
<path fill-rule="evenodd" clip-rule="evenodd" d="M284.909 142.13C279.605 142.482 274.897 138.401 275.981 133.197C276.491 130.748 277.259 128.326 278.281 125.96C280.623 120.538 284.248 115.513 288.951 111.17C293.654 106.827 299.343 103.252 305.692 100.649C312.04 98.0459 318.926 96.4659 325.954 95.9991C332.982 95.5322 340.015 96.1878 346.653 97.9282C353.29 99.6686 359.401 102.46 364.637 106.143C369.874 109.825 374.132 114.327 377.17 119.392C377.652 120.196 378.102 121.012 378.52 121.838C382.115 128.954 375.893 136.087 367.937 136.615L284.909 142.13ZM280.692 134.178C281.134 132.054 281.803 129.943 282.699 127.868C284.752 123.114 287.965 118.631 292.216 114.705C296.468 110.778 301.66 107.503 307.517 105.101C313.373 102.7 319.748 101.234 326.273 100.801C332.797 100.367 339.31 100.978 345.432 102.583C351.555 104.188 357.135 106.749 361.869 110.079C366.602 113.408 370.379 117.426 373.043 121.867C373.466 122.572 373.86 123.286 374.225 124.008C375.1 125.74 374.842 127.333 373.742 128.768C372.538 130.338 370.305 131.635 367.619 131.814L284.59 137.328C283.23 137.419 282.063 136.926 281.372 136.266C280.751 135.674 280.521 134.999 280.692 134.178Z"/>
<path d="M288.042 189.779C282.747 190.241 278.829 194.909 279.291 200.204C279.754 205.499 284.421 209.417 289.716 208.955L359.228 202.887C360.552 202.771 361.531 201.605 361.416 200.281C361.3 198.957 360.133 197.977 358.809 198.093L289.298 204.161C286.65 204.392 284.316 202.433 284.085 199.785C283.854 197.138 285.813 194.804 288.461 194.573L379.545 186.622C382.193 186.391 384.526 188.35 384.757 190.998C384.989 193.645 383.03 195.979 380.382 196.21L370.794 197.047C369.47 197.162 368.491 198.329 368.606 199.653C368.722 200.977 369.889 201.956 371.213 201.841L380.8 201.004C386.096 200.542 390.014 195.874 389.551 190.579C389.089 185.284 384.422 181.366 379.127 181.828L288.042 189.779Z"/>
<path d="M278.961 150.141C280.552 151.352 281.798 151.681 282.777 151.595C283.756 151.51 284.926 150.97 286.283 149.502C288.163 147.468 290.368 146.102 292.905 145.881C295.442 145.659 297.851 146.622 300.055 148.3C301.645 149.511 302.892 149.839 303.87 149.754C304.849 149.668 306.02 149.129 307.376 147.661C309.256 145.626 311.461 144.261 313.998 144.039C316.535 143.818 318.944 144.781 321.148 146.459C322.738 147.67 323.985 147.998 324.963 147.913C325.942 147.827 327.113 147.288 328.47 145.819C330.349 143.785 332.555 142.42 335.092 142.198C337.629 141.977 340.037 142.939 342.241 144.617C343.832 145.828 345.078 146.157 346.057 146.071C347.035 145.986 348.206 145.447 349.563 143.978C351.443 141.944 353.648 140.578 356.185 140.357C358.722 140.135 361.13 141.098 363.334 142.776C364.925 143.987 366.171 144.316 367.15 144.23C368.128 144.145 369.299 143.605 370.656 142.137C372.536 140.103 374.741 138.737 377.278 138.516C379.815 138.294 382.224 139.257 384.427 140.935C385.485 141.74 385.689 143.25 384.884 144.307C384.079 145.364 382.57 145.569 381.512 144.764C379.922 143.552 378.675 143.224 377.697 143.31C376.718 143.395 375.547 143.934 374.19 145.403C372.311 147.437 370.105 148.803 367.568 149.024C365.031 149.246 362.623 148.283 360.419 146.605C358.828 145.394 357.582 145.065 356.603 145.151C355.625 145.236 354.454 145.776 353.097 147.244C351.217 149.278 349.012 150.644 346.475 150.865C343.938 151.087 341.53 150.124 339.326 148.446C337.735 147.235 336.489 146.907 335.51 146.992C334.532 147.077 333.361 147.617 332.004 149.085C330.124 151.12 327.919 152.485 325.382 152.707C322.845 152.928 320.436 151.965 318.233 150.287C316.642 149.076 315.395 148.748 314.417 148.833C313.438 148.919 312.268 149.458 310.911 150.926C309.031 152.961 306.826 154.326 304.289 154.548C301.752 154.769 299.343 153.806 297.139 152.129C295.549 150.917 294.302 150.589 293.324 150.674C292.345 150.76 291.174 151.299 289.818 152.768C287.938 154.802 285.732 156.168 283.196 156.389C280.659 156.61 278.25 155.648 276.046 153.97C274.989 153.165 274.784 151.655 275.589 150.598C276.394 149.541 277.904 149.336 278.961 150.141Z"/>
<path d="M286.159 168.206C286.044 166.883 287.023 165.716 288.347 165.6L379.431 157.649C380.755 157.534 381.735 156.367 381.619 155.043C381.503 153.719 380.337 152.74 379.013 152.856L287.928 160.806C283.957 161.153 281.019 164.653 281.365 168.625C281.712 172.596 285.212 175.535 289.184 175.188L375.474 167.656C376.798 167.54 377.965 168.52 378.081 169.843C378.196 171.167 377.217 172.334 375.893 172.45L284.808 180.4C283.485 180.516 282.505 181.683 282.621 183.007C282.736 184.33 283.903 185.31 285.227 185.194L376.311 177.244C380.283 176.897 383.221 173.396 382.874 169.425C382.528 165.454 379.027 162.515 375.056 162.862L288.765 170.394C287.442 170.51 286.275 169.53 286.159 168.206Z"/>
</mask>
<path d="M309.682 113.76C308.664 112.906 308.532 111.388 309.386 110.37L312.48 106.684C313.334 105.667 314.852 105.534 315.87 106.389C316.887 107.243 317.02 108.761 316.166 109.778L313.072 113.464C312.217 114.482 310.7 114.614 309.682 113.76Z" fill="#895129"/>
<path d="M297.89 122.552C297.036 123.57 297.168 125.088 298.186 125.942C299.204 126.796 300.721 126.664 301.576 125.646L304.67 121.961C305.524 120.943 305.392 119.425 304.374 118.571C303.356 117.716 301.838 117.849 300.984 118.867L297.89 122.552Z" fill="#895129"/>
<path d="M312.69 126.091C311.836 127.109 311.968 128.626 312.986 129.481C314.004 130.335 315.522 130.203 316.376 129.185L319.47 125.499C320.324 124.481 320.192 122.964 319.174 122.109C318.156 121.255 316.639 121.387 315.784 122.405L312.69 126.091Z" fill="#895129"/>
<path d="M325.817 110.454C324.962 111.471 325.095 112.989 326.113 113.844C327.13 114.698 328.648 114.565 329.502 113.548L332.596 109.862C333.451 108.844 333.318 107.326 332.3 106.472C331.283 105.618 329.765 105.75 328.911 106.768L325.817 110.454Z" fill="#895129"/>
<path d="M340.913 117.382C339.895 116.528 339.763 115.01 340.617 113.992L343.711 110.307C344.565 109.289 346.083 109.156 347.101 110.011C348.118 110.865 348.251 112.383 347.396 113.4L344.303 117.086C343.448 118.104 341.931 118.236 340.913 117.382Z" fill="#895129"/>
<path d="M351.042 122.743C350.187 123.761 350.32 125.279 351.338 126.133C352.355 126.987 353.873 126.855 354.727 125.837L357.821 122.151C358.676 121.134 358.543 119.616 357.525 118.762C356.508 117.907 354.99 118.04 354.136 119.057L351.042 122.743Z" fill="#895129"/>
<path d="M330.37 129.412C329.352 128.558 329.22 127.04 330.074 126.023L333.168 122.337C334.022 121.319 335.54 121.187 336.558 122.041C337.575 122.895 337.708 124.413 336.854 125.431L333.76 129.116C332.905 130.134 331.388 130.267 330.37 129.412Z" fill="#895129"/>
<path fill-rule="evenodd" clip-rule="evenodd" d="M284.909 142.13C279.605 142.482 274.897 138.401 275.981 133.197C276.491 130.748 277.259 128.326 278.281 125.96C280.623 120.538 284.248 115.513 288.951 111.17C293.654 106.827 299.343 103.252 305.692 100.649C312.04 98.0459 318.926 96.4659 325.954 95.9991C332.982 95.5322 340.015 96.1878 346.653 97.9282C353.29 99.6686 359.401 102.46 364.637 106.143C369.874 109.825 374.132 114.327 377.17 119.392C377.652 120.196 378.102 121.012 378.52 121.838C382.115 128.954 375.893 136.087 367.937 136.615L284.909 142.13ZM280.692 134.178C281.134 132.054 281.803 129.943 282.699 127.868C284.752 123.114 287.965 118.631 292.216 114.705C296.468 110.778 301.66 107.503 307.517 105.101C313.373 102.7 319.748 101.234 326.273 100.801C332.797 100.367 339.31 100.978 345.432 102.583C351.555 104.188 357.135 106.749 361.869 110.079C366.602 113.408 370.379 117.426 373.043 121.867C373.466 122.572 373.86 123.286 374.225 124.008C375.1 125.74 374.842 127.333 373.742 128.768C372.538 130.338 370.305 131.635 367.619 131.814L284.59 137.328C283.23 137.419 282.063 136.926 281.372 136.266C280.751 135.674 280.521 134.999 280.692 134.178Z" fill="#895129"/>
<path d="M288.042 189.779C282.747 190.241 278.829 194.909 279.291 200.204C279.754 205.499 284.421 209.417 289.716 208.955L359.228 202.887C360.552 202.771 361.531 201.605 361.416 200.281C361.3 198.957 360.133 197.977 358.809 198.093L289.298 204.161C286.65 204.392 284.316 202.433 284.085 199.785C283.854 197.138 285.813 194.804 288.461 194.573L379.545 186.622C382.193 186.391 384.526 188.35 384.757 190.998C384.989 193.645 383.03 195.979 380.382 196.21L370.794 197.047C369.47 197.162 368.491 198.329 368.606 199.653C368.722 200.977 369.889 201.956 371.213 201.841L380.8 201.004C386.096 200.542 390.014 195.874 389.551 190.579C389.089 185.284 384.422 181.366 379.127 181.828L288.042 189.779Z" fill="#895129"/>
<path d="M278.961 150.141C280.552 151.352 281.798 151.681 282.777 151.595C283.756 151.51 284.926 150.97 286.283 149.502C288.163 147.468 290.368 146.102 292.905 145.881C295.442 145.659 297.851 146.622 300.055 148.3C301.645 149.511 302.892 149.839 303.87 149.754C304.849 149.668 306.02 149.129 307.376 147.661C309.256 145.626 311.461 144.261 313.998 144.039C316.535 143.818 318.944 144.781 321.148 146.459C322.738 147.67 323.985 147.998 324.963 147.913C325.942 147.827 327.113 147.288 328.47 145.819C330.349 143.785 332.555 142.42 335.092 142.198C337.629 141.977 340.037 142.939 342.241 144.617C343.832 145.828 345.078 146.157 346.057 146.071C347.035 145.986 348.206 145.447 349.563 143.978C351.443 141.944 353.648 140.578 356.185 140.357C358.722 140.135 361.13 141.098 363.334 142.776C364.925 143.987 366.171 144.316 367.15 144.23C368.128 144.145 369.299 143.605 370.656 142.137C372.536 140.103 374.741 138.737 377.278 138.516C379.815 138.294 382.224 139.257 384.427 140.935C385.485 141.74 385.689 143.25 384.884 144.307C384.079 145.364 382.57 145.569 381.512 144.764C379.922 143.552 378.675 143.224 377.697 143.31C376.718 143.395 375.547 143.934 374.19 145.403C372.311 147.437 370.105 148.803 367.568 149.024C365.031 149.246 362.623 148.283 360.419 146.605C358.828 145.394 357.582 145.065 356.603 145.151C355.625 145.236 354.454 145.776 353.097 147.244C351.217 149.278 349.012 150.644 346.475 150.865C343.938 151.087 341.53 150.124 339.326 148.446C337.735 147.235 336.489 146.907 335.51 146.992C334.532 147.077 333.361 147.617 332.004 149.085C330.124 151.12 327.919 152.485 325.382 152.707C322.845 152.928 320.436 151.965 318.233 150.287C316.642 149.076 315.395 148.748 314.417 148.833C313.438 148.919 312.268 149.458 310.911 150.926C309.031 152.961 306.826 154.326 304.289 154.548C301.752 154.769 299.343 153.806 297.139 152.129C295.549 150.917 294.302 150.589 293.324 150.674C292.345 150.76 291.174 151.299 289.818 152.768C287.938 154.802 285.732 156.168 283.196 156.389C280.659 156.61 278.25 155.648 276.046 153.97C274.989 153.165 274.784 151.655 275.589 150.598C276.394 149.541 277.904 149.336 278.961 150.141Z" fill="#895129"/>
<path d="M286.159 168.206C286.044 166.883 287.023 165.716 288.347 165.6L379.431 157.649C380.755 157.534 381.735 156.367 381.619 155.043C381.503 153.719 380.337 152.74 379.013 152.856L287.928 160.806C283.957 161.153 281.019 164.653 281.365 168.625C281.712 172.596 285.212 175.535 289.184 175.188L375.474 167.656C376.798 167.54 377.965 168.52 378.081 169.843C378.196 171.167 377.217 172.334 375.893 172.45L284.808 180.4C283.485 180.516 282.505 181.683 282.621 183.007C282.736 184.33 283.903 185.31 285.227 185.194L376.311 177.244C380.283 176.897 383.221 173.396 382.874 169.425C382.528 165.454 379.027 162.515 375.056 162.862L288.765 170.394C287.442 170.51 286.275 169.53 286.159 168.206Z" fill="#895129"/>
<path d="M309.682 113.76C308.664 112.906 308.532 111.388 309.386 110.37L312.48 106.684C313.334 105.667 314.852 105.534 315.87 106.389C316.887 107.243 317.02 108.761 316.166 109.778L313.072 113.464C312.217 114.482 310.7 114.614 309.682 113.76Z" stroke="#895129" stroke-width="9.62429" mask="url(#path-2-inside-1_65_23)"/>
<path d="M297.89 122.552C297.036 123.57 297.168 125.088 298.186 125.942C299.204 126.796 300.721 126.664 301.576 125.646L304.67 121.961C305.524 120.943 305.392 119.425 304.374 118.571C303.356 117.716 301.838 117.849 300.984 118.867L297.89 122.552Z" stroke="#895129" stroke-width="9.62429" mask="url(#path-2-inside-1_65_23)"/>
<path d="M312.69 126.091C311.836 127.109 311.968 128.626 312.986 129.481C314.004 130.335 315.522 130.203 316.376 129.185L319.47 125.499C320.324 124.481 320.192 122.964 319.174 122.109C318.156 121.255 316.639 121.387 315.784 122.405L312.69 126.091Z" stroke="#895129" stroke-width="9.62429" mask="url(#path-2-inside-1_65_23)"/>
<path d="M325.817 110.454C324.962 111.471 325.095 112.989 326.113 113.844C327.13 114.698 328.648 114.565 329.502 113.548L332.596 109.862C333.451 108.844 333.318 107.326 332.3 106.472C331.283 105.618 329.765 105.75 328.911 106.768L325.817 110.454Z" stroke="#895129" stroke-width="9.62429" mask="url(#path-2-inside-1_65_23)"/>
<path d="M340.913 117.382C339.895 116.528 339.763 115.01 340.617 113.992L343.711 110.307C344.565 109.289 346.083 109.156 347.101 110.011C348.118 110.865 348.251 112.383 347.396 113.4L344.303 117.086C343.448 118.104 341.931 118.236 340.913 117.382Z" stroke="#895129" stroke-width="9.62429" mask="url(#path-2-inside-1_65_23)"/>
<path d="M351.042 122.743C350.187 123.761 350.32 125.279 351.338 126.133C352.355 126.987 353.873 126.855 354.727 125.837L357.821 122.151C358.676 121.134 358.543 119.616 357.525 118.762C356.508 117.907 354.99 118.04 354.136 119.057L351.042 122.743Z" stroke="#895129" stroke-width="9.62429" mask="url(#path-2-inside-1_65_23)"/>
<path d="M330.37 129.412C329.352 128.558 329.22 127.04 330.074 126.023L333.168 122.337C334.022 121.319 335.54 121.187 336.558 122.041C337.575 122.895 337.708 124.413 336.854 125.431L333.76 129.116C332.905 130.134 331.388 130.267 330.37 129.412Z" stroke="#895129" stroke-width="9.62429" mask="url(#path-2-inside-1_65_23)"/>
<path fill-rule="evenodd" clip-rule="evenodd" d="M284.909 142.13C279.605 142.482 274.897 138.401 275.981 133.197C276.491 130.748 277.259 128.326 278.281 125.96C280.623 120.538 284.248 115.513 288.951 111.17C293.654 106.827 299.343 103.252 305.692 100.649C312.04 98.0459 318.926 96.4659 325.954 95.9991C332.982 95.5322 340.015 96.1878 346.653 97.9282C353.29 99.6686 359.401 102.46 364.637 106.143C369.874 109.825 374.132 114.327 377.17 119.392C377.652 120.196 378.102 121.012 378.52 121.838C382.115 128.954 375.893 136.087 367.937 136.615L284.909 142.13ZM280.692 134.178C281.134 132.054 281.803 129.943 282.699 127.868C284.752 123.114 287.965 118.631 292.216 114.705C296.468 110.778 301.66 107.503 307.517 105.101C313.373 102.7 319.748 101.234 326.273 100.801C332.797 100.367 339.31 100.978 345.432 102.583C351.555 104.188 357.135 106.749 361.869 110.079C366.602 113.408 370.379 117.426 373.043 121.867C373.466 122.572 373.86 123.286 374.225 124.008C375.1 125.74 374.842 127.333 373.742 128.768C372.538 130.338 370.305 131.635 367.619 131.814L284.59 137.328C283.23 137.419 282.063 136.926 281.372 136.266C280.751 135.674 280.521 134.999 280.692 134.178Z" stroke="#895129" stroke-width="9.62429" mask="url(#path-2-inside-1_65_23)"/>
<path d="M288.042 189.779C282.747 190.241 278.829 194.909 279.291 200.204C279.754 205.499 284.421 209.417 289.716 208.955L359.228 202.887C360.552 202.771 361.531 201.605 361.416 200.281C361.3 198.957 360.133 197.977 358.809 198.093L289.298 204.161C286.65 204.392 284.316 202.433 284.085 199.785C283.854 197.138 285.813 194.804 288.461 194.573L379.545 186.622C382.193 186.391 384.526 188.35 384.757 190.998C384.989 193.645 383.03 195.979 380.382 196.21L370.794 197.047C369.47 197.162 368.491 198.329 368.606 199.653C368.722 200.977 369.889 201.956 371.213 201.841L380.8 201.004C386.096 200.542 390.014 195.874 389.551 190.579C389.089 185.284 384.422 181.366 379.127 181.828L288.042 189.779Z" stroke="#895129" stroke-width="9.62429" mask="url(#path-2-inside-1_65_23)"/>
<path d="M278.961 150.141C280.552 151.352 281.798 151.681 282.777 151.595C283.756 151.51 284.926 150.97 286.283 149.502C288.163 147.468 290.368 146.102 292.905 145.881C295.442 145.659 297.851 146.622 300.055 148.3C301.645 149.511 302.892 149.839 303.87 149.754C304.849 149.668 306.02 149.129 307.376 147.661C309.256 145.626 311.461 144.261 313.998 144.039C316.535 143.818 318.944 144.781 321.148 146.459C322.738 147.67 323.985 147.998 324.963 147.913C325.942 147.827 327.113 147.288 328.47 145.819C330.349 143.785 332.555 142.42 335.092 142.198C337.629 141.977 340.037 142.939 342.241 144.617C343.832 145.828 345.078 146.157 346.057 146.071C347.035 145.986 348.206 145.447 349.563 143.978C351.443 141.944 353.648 140.578 356.185 140.357C358.722 140.135 361.13 141.098 363.334 142.776C364.925 143.987 366.171 144.316 367.15 144.23C368.128 144.145 369.299 143.605 370.656 142.137C372.536 140.103 374.741 138.737 377.278 138.516C379.815 138.294 382.224 139.257 384.427 140.935C385.485 141.74 385.689 143.25 384.884 144.307C384.079 145.364 382.57 145.569 381.512 144.764C379.922 143.552 378.675 143.224 377.697 143.31C376.718 143.395 375.547 143.934 374.19 145.403C372.311 147.437 370.105 148.803 367.568 149.024C365.031 149.246 362.623 148.283 360.419 146.605C358.828 145.394 357.582 145.065 356.603 145.151C355.625 145.236 354.454 145.776 353.097 147.244C351.217 149.278 349.012 150.644 346.475 150.865C343.938 151.087 341.53 150.124 339.326 148.446C337.735 147.235 336.489 146.907 335.51 146.992C334.532 147.077 333.361 147.617 332.004 149.085C330.124 151.12 327.919 152.485 325.382 152.707C322.845 152.928 320.436 151.965 318.233 150.287C316.642 149.076 315.395 148.748 314.417 148.833C313.438 148.919 312.268 149.458 310.911 150.926C309.031 152.961 306.826 154.326 304.289 154.548C301.752 154.769 299.343 153.806 297.139 152.129C295.549 150.917 294.302 150.589 293.324 150.674C292.345 150.76 291.174 151.299 289.818 152.768C287.938 154.802 285.732 156.168 283.196 156.389C280.659 156.61 278.25 155.648 276.046 153.97C274.989 153.165 274.784 151.655 275.589 150.598C276.394 149.541 277.904 149.336 278.961 150.141Z" stroke="#895129" stroke-width="9.62429" mask="url(#path-2-inside-1_65_23)"/>
<path d="M286.159 168.206C286.044 166.883 287.023 165.716 288.347 165.6L379.431 157.649C380.755 157.534 381.735 156.367 381.619 155.043C381.503 153.719 380.337 152.74 379.013 152.856L287.928 160.806C283.957 161.153 281.019 164.653 281.365 168.625C281.712 172.596 285.212 175.535 289.184 175.188L375.474 167.656C376.798 167.54 377.965 168.52 378.081 169.843C378.196 171.167 377.217 172.334 375.893 172.45L284.808 180.4C283.485 180.516 282.505 181.683 282.621 183.007C282.736 184.33 283.903 185.31 285.227 185.194L376.311 177.244C380.283 176.897 383.221 173.396 382.874 169.425C382.528 165.454 379.027 162.515 375.056 162.862L288.765 170.394C287.442 170.51 286.275 169.53 286.159 168.206Z" stroke="#895129" stroke-width="9.62429" mask="url(#path-2-inside-1_65_23)"/>
<path fill-rule="evenodd" clip-rule="evenodd" d="M400.942 530.297C401.951 524.518 407.454 520.651 413.232 521.66L420.208 522.878C422.888 523.346 425.156 524.781 426.718 526.761C428.858 525.427 431.479 524.846 434.159 525.314L441.134 526.532C446.913 527.541 450.779 533.044 449.77 538.822L449.057 542.906C450.215 542.71 451.426 542.706 452.649 542.919L459.624 544.137C465.403 545.146 469.269 550.649 468.26 556.427L463.997 580.841L473.776 582.549C479.94 583.625 483.843 589.77 482.196 595.807L454.291 698.085C453.777 699.971 451.83 701.083 449.944 700.569C448.057 700.054 446.945 698.108 447.46 696.221L475.364 593.944C475.913 591.931 474.613 589.883 472.558 589.524L462.53 587.773C461.517 590.406 459.694 592.703 457.314 594.609C454.232 597.076 450.186 598.925 445.553 600.175C440.901 601.43 435.614 602.094 430.013 602.166C424.406 602.239 418.543 601.718 412.761 600.641C406.978 599.564 401.358 597.947 396.226 595.872C391.099 593.8 386.508 591.291 382.751 588.456C379.01 585.633 376.049 582.449 374.251 579.013C373.072 576.759 372.4 574.397 372.348 572.026L362.321 570.275C360.266 569.916 358.348 571.403 358.182 573.482L350.286 672.736C350.141 674.558 351.406 676.19 353.206 676.505L434.046 690.62C435.972 690.957 437.261 692.791 436.925 694.717C436.589 696.643 434.754 697.932 432.828 697.596L351.988 683.48C346.588 682.537 342.792 677.639 343.227 672.175L351.124 572.92C351.62 566.683 357.374 562.223 363.539 563.3L373.317 565.007L377.58 540.593C378.589 534.815 384.092 530.948 389.87 531.957L396.846 533.175C398.069 533.389 399.206 533.804 400.229 534.38L400.942 530.297ZM379.784 569.14C379.781 569.444 379.739 569.754 379.653 570.061C379.209 571.657 379.379 573.539 380.526 575.731C381.696 577.969 383.831 580.4 387.016 582.804C388.302 583.774 389.729 584.717 391.282 585.621L398.506 544.247C398.843 542.321 397.554 540.487 395.628 540.151L388.652 538.933C386.726 538.596 384.892 539.885 384.556 541.811L379.784 569.14ZM397.571 588.762C398.001 588.947 398.437 589.128 398.879 589.307C402.805 590.894 407.082 592.201 411.528 593.169L421.868 533.951C422.205 532.024 420.916 530.19 418.99 529.854L412.014 528.636C410.088 528.299 408.254 529.588 407.918 531.515L398.174 587.318C398.08 587.856 397.869 588.345 397.571 588.762ZM418.504 594.387C422.374 594.898 426.221 595.134 429.921 595.086C430.888 595.073 431.84 595.042 432.774 594.991L442.795 537.604C443.131 535.678 441.842 533.844 439.916 533.508L432.941 532.29C431.014 531.953 429.18 533.242 428.844 535.169L418.504 594.387ZM440.11 594.147C441.363 593.917 442.565 593.647 443.709 593.338C447.708 592.259 450.782 590.768 452.888 589.081C454.962 587.421 455.956 585.697 456.245 584.07L461.285 555.209C461.621 553.283 460.332 551.449 458.406 551.113L451.431 549.895C449.505 549.558 447.67 550.847 447.334 552.773L440.11 594.147Z" fill="#895129"/>
<path d="M420.444 649.841C424.938 643.439 423.391 634.607 416.989 630.113C410.588 625.62 401.755 627.166 397.262 633.568C392.768 639.97 394.315 648.802 400.716 653.296C402.317 654.419 402.704 656.627 401.58 658.228C400.457 659.828 398.249 660.215 396.648 659.091C387.046 652.351 384.726 639.102 391.466 629.5C398.207 619.897 411.455 617.577 421.058 624.318C430.66 631.058 432.98 644.307 426.24 653.909C422.948 658.598 418.098 661.553 412.888 662.561C410.968 662.932 409.111 661.677 408.74 659.757C408.368 657.837 409.624 655.98 411.544 655.609C415.024 654.935 418.248 652.969 420.444 649.841Z" fill="#895129"/>
<path fill-rule="evenodd" clip-rule="evenodd" d="M742.187 371.453C733.969 366.708 723.461 369.524 718.716 377.742L658.572 481.915C653.831 490.127 656.644 500.626 664.856 505.367C673.078 510.115 683.593 507.286 688.324 499.054L717.273 448.682C718.061 447.311 717.588 445.56 716.217 444.772C714.845 443.984 713.095 444.457 712.307 445.828L683.359 496.2C680.206 501.686 673.199 503.571 667.719 500.407C662.247 497.248 660.373 490.251 663.532 484.779L723.676 380.606C726.839 375.127 733.845 373.25 739.324 376.413C744.802 379.576 746.68 386.582 743.516 392.061L725.773 422.794L720.711 431.561C719.92 432.93 720.389 434.682 721.759 435.473C723.129 436.263 724.88 435.794 725.671 434.424L730.733 425.657L748.476 394.924C753.221 386.706 750.405 376.198 742.187 371.453ZM697.995 388.464L657.434 459.758C655.838 462.564 652.516 463.897 649.423 462.973C645.16 461.699 643.183 456.797 645.369 452.923L665.65 416.974L685.673 381.482C687.934 377.473 693.36 376.654 696.705 379.816C699.076 382.057 699.608 385.628 697.995 388.464ZM702.973 391.296L662.413 462.59C659.497 467.714 653.431 470.148 647.783 468.46C640 466.134 636.389 457.184 640.381 450.108L660.662 414.159L680.684 378.668C684.775 371.416 694.589 369.934 700.64 375.654C704.928 379.708 705.891 386.167 702.973 391.296ZM720.526 496.184L761.087 424.89C762.7 422.054 762.167 418.484 759.797 416.242C756.452 413.08 751.026 413.899 748.764 417.909L728.742 453.4L708.461 489.349C706.275 493.224 708.252 498.125 712.515 499.399C715.608 500.323 718.93 498.99 720.526 496.184ZM725.504 499.016L766.065 427.722C768.983 422.593 768.019 416.134 763.731 412.08C757.681 406.36 747.867 407.843 743.776 415.095L723.754 450.586L703.473 486.535C699.481 493.61 703.091 502.561 710.875 504.887C716.523 506.574 722.589 504.141 725.504 499.016ZM676.282 480.598C682.176 477.064 685.087 472.023 685.2 465.151C685.346 456.3 689.309 449.437 696.9 444.886C702.795 441.352 705.705 436.31 705.819 429.438C705.965 420.588 709.927 413.725 717.519 409.173C723.413 405.639 726.324 400.598 726.437 393.726C726.463 392.145 727.767 390.884 729.348 390.91C730.929 390.936 732.19 392.239 732.164 393.821C732.018 402.671 728.056 409.534 720.464 414.086C714.569 417.62 711.659 422.661 711.545 429.533C711.399 438.383 707.437 445.246 699.845 449.798C693.951 453.332 691.04 458.373 690.927 465.245C690.781 474.096 686.819 480.958 679.227 485.51C677.87 486.323 676.112 485.883 675.298 484.527C674.485 483.17 674.925 481.411 676.282 480.598Z" fill="#895129"/>
<path d="M1205.61 113.992C1205.46 114.596 1205.51 115.203 1205.73 115.741C1205.84 116.321 1206.13 116.872 1206.6 117.302C1212.72 122.91 1215.2 131.927 1212.83 141.33C1209.49 154.539 1196.76 162.43 1184.64 159.368C1172.52 156.306 1165.07 143.318 1168.4 130.11C1169.87 124.284 1173.19 119.471 1177.48 116.187C1178.39 115.492 1178.77 114.36 1178.54 113.312C1178.62 112.898 1178.6 112.462 1178.48 112.03C1174.35 97.446 1159.24 88.0982 1144.4 92.3025C1129.69 96.4719 1121.15 111.777 1125.32 126.487C1127.25 133.309 1131.58 138.808 1137.14 142.323C1137.14 142.325 1137.14 142.322 1137.14 142.323L1146.34 209.638C1147.43 217.542 1157.76 219.833 1162.08 213.127L1186.32 175.502C1187.17 174.173 1186.79 172.401 1185.46 171.544C1184.13 170.688 1182.36 171.071 1181.5 172.401L1157.26 210.025C1155.82 212.26 1152.38 211.497 1152.02 208.862L1142.81 141.552C1142.78 141.334 1142.73 141.126 1142.65 140.929C1142.79 139.812 1142.25 138.672 1141.21 138.088C1136.32 135.344 1132.48 130.744 1130.83 124.926C1127.52 113.258 1134.3 101.12 1145.97 97.8128C1157.22 94.6244 1169.01 101.435 1172.7 112.698C1168.03 116.697 1164.49 122.208 1162.85 128.707C1158.81 144.686 1167.76 161.011 1183.24 164.921C1198.72 168.83 1214.34 158.712 1218.38 142.733C1221.07 132.084 1218.59 121.317 1211.5 114.077L1211.56 113.83L1211.58 113.779C1214.7 100.351 1207.4 86.3918 1194.12 81.5295C1186.66 78.795 1178.77 79.4796 1172.19 82.7816C1169.92 83.9208 1167.8 85.3722 1165.9 87.1042C1164.74 88.1714 1164.65 89.9828 1165.72 91.15C1166.79 92.3172 1168.6 92.3983 1169.77 91.331C1171.27 89.9582 1172.95 88.806 1174.75 87.901C1179.98 85.2778 1186.23 84.7386 1192.15 86.9076C1202.67 90.7596 1208.47 101.817 1206 112.454L1205.61 113.992Z" fill="#895129"/>
<path fill-rule="evenodd" clip-rule="evenodd" d="M50.4598 396.441C51.7184 391.347 56.8684 388.238 61.9627 389.496L106.239 400.434C111.333 401.693 114.443 406.843 113.184 411.937L113.127 412.169C116.107 413.775 117.745 417.245 116.895 420.684C116.045 424.127 112.972 426.437 109.581 426.463C109.564 426.603 109.532 426.743 109.482 426.881L88.8565 484.423C88.5023 485.411 87.4144 485.925 86.4264 485.571C85.4385 485.217 84.9247 484.129 85.2788 483.141L105.839 425.782L50.5131 412.114L42.4774 469.051C42.3412 470.016 42.9571 470.927 43.9033 471.161L76.9615 479.328C77.9803 479.579 78.6022 480.609 78.3505 481.628C78.0988 482.647 77.0688 483.269 76.05 483.017L42.9918 474.851C40.1533 474.149 38.3055 471.415 38.7141 468.52L46.777 411.39C46.7975 411.245 46.8339 411.106 46.8842 410.975C43.8956 409.372 42.2517 405.897 43.1024 402.454C43.9518 399.015 47.0173 396.707 50.4024 396.674L50.4598 396.441ZM105.327 404.124C108.384 404.879 110.249 407.969 109.494 411.025L54.1495 397.353C54.9046 394.296 57.9946 392.431 61.0512 393.186L105.327 404.124ZM51.3932 400.587L110.428 415.171C112.465 415.674 113.709 417.734 113.206 419.772C112.702 421.81 110.642 423.054 108.605 422.55L49.5702 407.966C47.5324 407.463 46.2886 405.403 46.792 403.365C47.2954 401.327 49.3554 400.083 51.3932 400.587Z" fill="#895129"/>
<path d="M63.5046 446.642C64.5114 442.567 68.6314 440.079 72.7069 441.086C76.7824 442.093 79.27 446.213 78.2632 450.288C77.5062 453.353 74.9873 455.523 72.0447 455.98C71.0076 456.14 70.2972 457.111 70.4579 458.149C70.6187 459.186 71.5898 459.896 72.6269 459.735C77.0308 459.053 80.8155 455.804 81.9529 451.2C83.4631 445.086 79.7316 438.906 73.6184 437.396C67.5052 435.886 61.3252 439.617 59.8149 445.731C58.6236 450.553 60.6941 455.412 64.6156 457.992C65.4924 458.569 66.6708 458.326 67.2476 457.449C67.8245 456.573 67.5814 455.394 66.7046 454.817C64.0865 453.095 62.7116 449.852 63.5046 446.642Z" fill="#895129"/>
<path fill-rule="evenodd" clip-rule="evenodd" d="M949.985 321.853L953.359 320.463C957.579 318.723 962.41 320.734 964.149 324.954C964.729 326.362 964.892 327.837 964.695 329.244C969.744 327.674 975.247 330.193 977.3 335.176C978.301 337.603 978.309 340.192 977.511 342.492C981.7 342.348 985.728 344.78 987.419 348.883C989.593 354.157 987.079 360.196 981.804 362.37L947.525 376.498L977.417 411.086C978.715 412.588 981.178 411.573 981.041 409.592L978.285 369.817C978.206 368.679 979.065 367.692 980.203 367.613C981.341 367.535 982.328 368.393 982.407 369.532L985.163 409.307C985.575 415.249 978.185 418.294 974.29 413.788L943.949 378.678C943.799 378.506 943.684 378.315 943.601 378.115C938.327 380.289 932.289 377.775 930.115 372.5C928.424 368.398 929.569 363.834 932.642 360.985C930.456 359.915 928.637 358.072 927.637 355.645C925.583 350.662 927.713 344.997 932.402 342.553C931.271 341.694 930.347 340.532 929.767 339.125C928.027 334.905 930.038 330.074 934.258 328.335L936.276 327.504C936.046 326.527 935.915 325.466 935.844 324.425C935.709 322.467 935.771 320.283 935.968 318.221C936.165 316.164 936.506 314.154 936.959 312.552C937.184 311.757 937.455 310.993 937.788 310.355C938.07 309.814 938.599 308.951 939.534 308.526C941.07 307.829 942.344 308.744 942.887 309.25C943.499 309.821 944.033 310.612 944.485 311.373C945.27 312.696 946.098 314.444 946.884 316.101C947.017 316.383 947.15 316.662 947.281 316.937C948.229 318.927 949.083 320.629 949.832 321.653C949.888 321.728 949.939 321.795 949.985 321.853ZM940.667 327.659C940.361 327.059 940.084 325.867 939.966 324.143C939.85 322.455 939.9 320.502 940.081 318.615C940.263 316.722 940.569 314.971 940.935 313.677L940.971 313.549C941.638 314.684 942.354 316.194 943.133 317.836C943.27 318.125 943.41 318.419 943.551 318.715C944.46 320.621 945.477 322.698 946.497 324.093C946.979 324.751 947.67 325.559 948.59 325.978C949.104 326.213 949.753 326.354 950.465 326.206C950.969 326.101 951.393 325.875 951.738 325.6L954.934 324.283C957.044 323.413 959.459 324.419 960.329 326.529C961.198 328.639 960.193 331.054 958.083 331.923L954.263 333.498C953.208 333.933 952.705 335.14 953.14 336.195C953.575 337.25 954.782 337.753 955.837 337.318L965.388 333.382C968.553 332.078 972.176 333.586 973.48 336.751C974.784 339.915 973.276 343.538 970.111 344.843L952.92 351.928C951.865 352.363 951.363 353.57 951.797 354.625C952.232 355.68 953.44 356.183 954.495 355.748L975.506 347.088C978.671 345.784 982.294 347.292 983.598 350.457C984.903 353.622 983.395 357.245 980.23 358.549L942.027 374.294C938.862 375.599 935.239 374.091 933.935 370.926C932.631 367.761 934.139 364.138 937.304 362.834L943.307 360.359C944.362 359.925 944.865 358.717 944.43 357.662C943.995 356.607 942.787 356.104 941.732 356.539L939.549 357.439C936.385 358.743 932.762 357.235 931.457 354.07C930.153 350.905 931.661 347.282 934.826 345.978L940.283 343.729C940.314 343.716 940.344 343.703 940.373 343.689C940.434 343.666 940.495 343.641 940.556 343.616L942.466 342.829C943.521 342.394 944.024 341.187 943.589 340.132C943.154 339.077 941.947 338.574 940.892 339.009L938.982 339.796C936.872 340.666 934.456 339.66 933.587 337.55C932.717 335.44 933.723 333.025 935.833 332.155L939.653 330.581C940.708 330.146 941.211 328.938 940.776 327.884C940.744 327.806 940.707 327.731 940.667 327.659ZM940.015 312.225L940.024 312.233C940.02 312.23 940.016 312.226 940.015 312.225C940.014 312.225 940.015 312.225 940.015 312.225Z" fill="#895129"/>
<path fill-rule="evenodd" clip-rule="evenodd" d="M1009.63 614.512C1008.57 619.959 1003.3 623.517 997.851 622.46C992.404 621.403 988.846 616.13 989.903 610.683C990.96 605.237 996.233 601.678 1001.68 602.735C1007.13 603.793 1010.68 609.065 1009.63 614.512ZM1003.05 613.236C1002.7 615.051 1000.94 616.237 999.127 615.885C997.312 615.533 996.126 613.775 996.478 611.96C996.83 610.144 998.588 608.958 1000.4 609.31C1002.22 609.663 1003.41 611.42 1003.05 613.236Z" fill="#895129"/>
<path fill-rule="evenodd" clip-rule="evenodd" d="M982.787 629.77C981.73 635.216 976.458 638.775 971.011 637.718C965.564 636.66 962.006 631.388 963.063 625.941C964.12 620.494 969.393 616.936 974.839 617.993C980.286 619.05 983.845 624.323 982.787 629.77ZM976.213 628.494C975.86 630.309 974.103 631.495 972.287 631.143C970.471 630.79 969.285 629.033 969.638 627.217C969.99 625.402 971.748 624.216 973.563 624.568C975.379 624.92 976.565 626.678 976.213 628.494Z" fill="#895129"/>
<path fill-rule="evenodd" clip-rule="evenodd" d="M990.194 661.909C995.641 662.966 1000.91 659.407 1001.97 653.961C1003.03 648.514 999.469 643.241 994.023 642.184C988.576 641.127 983.303 644.685 982.246 650.132C981.189 655.579 984.747 660.851 990.194 661.909ZM995.396 652.684C995.043 654.5 993.286 655.686 991.47 655.334C989.655 654.981 988.469 653.224 988.821 651.408C989.173 649.593 990.931 648.407 992.747 648.759C994.562 649.111 995.748 650.869 995.396 652.684Z" fill="#895129"/>
<path fill-rule="evenodd" clip-rule="evenodd" d="M1028.81 638.703C1027.75 644.15 1022.48 647.708 1017.03 646.651C1011.59 645.594 1008.03 640.321 1009.09 634.874C1010.14 629.428 1015.42 625.869 1020.86 626.926C1026.31 627.984 1029.87 633.256 1028.81 638.703ZM1022.24 637.427C1021.88 639.242 1020.13 640.428 1018.31 640.076C1016.5 639.724 1015.31 637.966 1015.66 636.151C1016.01 634.335 1017.77 633.149 1019.59 633.501C1021.4 633.854 1022.59 635.611 1022.24 637.427Z" fill="#895129"/>
<path fill-rule="evenodd" clip-rule="evenodd" d="M974.161 498.468C972.345 498.115 970.587 499.301 970.235 501.117C969.883 502.933 971.069 504.69 972.884 505.043L999.184 510.147C1004.63 511.204 1008.19 516.477 1007.13 521.924L1002.66 544.935L966.504 537.916C961.057 536.859 955.784 540.418 954.727 545.864L953.451 552.439C952.611 556.767 954.685 560.985 958.305 563.066L942.871 659.89C942.018 665.239 945.56 670.301 950.878 671.334L1023.13 685.358C1028.45 686.39 1033.63 683.02 1034.84 677.74L1057.36 579.488L1059.92 566.283C1060.98 560.836 1057.42 555.564 1051.98 554.507L1009.24 546.212L1013.71 523.2C1015.47 514.122 1009.54 505.334 1000.46 503.572L974.161 498.468ZM965.227 544.491L1050.7 561.081C1052.52 561.434 1053.7 563.191 1053.35 565.007L1050.81 578.101L1048.05 590.145C1047.1 589.757 1046.03 589.353 1044.86 588.969C1040.29 587.475 1033.92 586.201 1027.25 587.476C1016.29 589.571 1006.21 587.613 996.821 581.569C987.448 575.532 974.862 572.521 963.442 573.388L964.799 564.876L1030.43 577.615C1032.25 577.968 1034.01 576.782 1034.36 574.966C1034.71 573.151 1033.53 571.393 1031.71 571.041L962.675 557.641C960.859 557.288 959.673 555.531 960.026 553.715L961.302 547.141C961.654 545.325 963.412 544.139 965.227 544.491ZM1042.78 595.335C1044.23 595.812 1045.51 596.325 1046.53 596.779L1028.31 676.244C1027.9 678.004 1026.18 679.127 1024.41 678.783L952.154 664.759C950.381 664.415 949.201 662.727 949.485 660.944L962.353 580.217C972.71 579.032 984.617 581.675 993.195 587.199C1004.02 594.175 1015.86 596.472 1028.51 594.054C1033.65 593.072 1038.79 594.032 1042.78 595.335Z" fill="#895129"/>
<path fill-rule="evenodd" clip-rule="evenodd" d="M307.724 296.877C303.776 297.984 301.473 302.082 302.58 306.03L305.932 317.986C303.849 318.996 301.857 320.177 299.986 321.516C296.112 324.288 292.819 327.689 290.306 331.537C287.792 335.385 286.105 339.609 285.361 343.972C284.901 346.671 284.809 349.386 285.083 352.058L282.292 352.84C279.66 353.578 278.124 356.31 278.862 358.942L280.198 363.708C280.936 366.34 283.668 367.876 286.3 367.138L288.683 366.47C288.697 366.519 288.712 366.567 288.729 366.616L311.688 432.463C312.979 436.166 316.927 438.226 320.702 437.167L359.433 426.309C360.749 425.94 361.517 424.574 361.148 423.258C360.779 421.942 359.413 421.174 358.097 421.543L319.366 432.402C318.108 432.755 316.792 432.068 316.361 430.834L298.351 379.18L349.88 364.733C351.196 364.364 351.964 362.998 351.595 361.682C351.226 360.366 349.86 359.598 348.544 359.967L296.719 374.497L293.453 365.132L355.398 347.765L370.64 420.426C370.921 421.763 372.233 422.62 373.57 422.339C374.908 422.059 375.765 420.747 375.484 419.409L360.208 346.587C360.196 346.533 360.183 346.48 360.169 346.427L362.552 345.759C365.184 345.021 366.719 342.29 365.981 339.658L364.645 334.892C363.907 332.26 361.175 330.724 358.543 331.462L355.751 332.245C354.597 329.82 353.106 327.549 351.31 325.482C348.407 322.142 344.77 319.411 340.622 317.43C336.475 315.449 331.893 314.256 327.143 313.902C324.848 313.731 322.533 313.757 320.229 313.977L316.877 302.021C315.77 298.073 311.672 295.77 307.724 296.877ZM315.304 314.746L312.111 303.357C311.742 302.041 310.376 301.274 309.06 301.643C307.744 302.012 306.976 303.378 307.345 304.694L310.538 316.082C311.318 315.814 312.106 315.567 312.902 315.344C313.697 315.121 314.499 314.922 315.304 314.746ZM311.877 320.857C312.654 320.583 313.441 320.333 314.238 320.11C315.034 319.887 315.837 319.69 316.643 319.521L322.8 341.483L318.034 342.819L311.877 320.857ZM307.292 322.839C305.748 323.635 304.268 324.538 302.866 325.541C299.468 327.972 296.612 330.933 294.449 334.243C292.288 337.553 290.864 341.143 290.241 344.803C289.904 346.776 289.803 348.752 289.934 350.698L313.269 344.156L307.292 322.839ZM327.566 340.147L321.589 318.83C323.323 318.708 325.057 318.71 326.775 318.838C330.942 319.148 334.921 320.192 338.489 321.896C342.057 323.6 345.139 325.926 347.574 328.729C348.887 330.239 350 331.874 350.9 333.605L327.566 340.147ZM283.628 357.606L359.879 336.228L361.215 340.994L284.964 362.372L283.628 357.606Z" fill="#895129"/>
<path fill-rule="evenodd" clip-rule="evenodd" d="M338.923 380.656C340.03 384.604 337.727 388.702 333.779 389.809C329.831 390.915 325.733 388.612 324.626 384.664C323.519 380.716 325.822 376.618 329.77 375.511C333.718 374.404 337.816 376.708 338.923 380.656ZM334.157 381.992C334.526 383.308 333.759 384.674 332.443 385.043C331.127 385.412 329.761 384.644 329.392 383.328C329.023 382.012 329.79 380.646 331.106 380.277C332.422 379.908 333.788 380.676 334.157 381.992Z" fill="#895129"/>
<path fill-rule="evenodd" clip-rule="evenodd" d="M335.108 400.417C336.215 404.365 333.912 408.463 329.964 409.57C326.016 410.677 321.918 408.374 320.811 404.426C319.704 400.478 322.007 396.38 325.955 395.273C329.903 394.166 334.001 396.469 335.108 400.417ZM330.342 401.753C330.711 403.07 329.944 404.435 328.628 404.804C327.312 405.173 325.946 404.406 325.577 403.09C325.208 401.774 325.975 400.408 327.291 400.039C328.607 399.67 329.973 400.437 330.342 401.753Z" fill="#895129"/>
<path fill-rule="evenodd" clip-rule="evenodd" d="M330.929 418.879C332.036 422.827 329.733 426.925 325.784 428.032C321.836 429.139 317.739 426.836 316.632 422.888C315.525 418.94 317.828 414.842 321.776 413.735C325.724 412.628 329.822 414.931 330.929 418.879ZM326.163 420.215C326.532 421.531 325.764 422.897 324.448 423.266C323.132 423.635 321.766 422.868 321.397 421.552C321.028 420.236 321.796 418.87 323.112 418.501C324.428 418.132 325.794 418.899 326.163 420.215Z" fill="#895129"/>
<path fill-rule="evenodd" clip-rule="evenodd" d="M348.259 414.021C349.366 417.969 347.062 422.067 343.114 423.173C339.166 424.28 335.068 421.977 333.962 418.029C332.855 414.081 335.158 409.983 339.106 408.876C343.054 407.769 347.152 410.073 348.259 414.021ZM343.493 415.357C343.862 416.673 343.094 418.039 341.778 418.408C340.462 418.777 339.096 418.009 338.727 416.693C338.358 415.377 339.126 414.011 340.442 413.642C341.758 413.273 343.124 414.041 343.493 415.357Z" fill="#895129"/>
<path fill-rule="evenodd" clip-rule="evenodd" d="M360.444 418.315C364.392 417.208 366.696 413.11 365.589 409.162C364.482 405.214 360.384 402.911 356.436 404.018C352.488 405.124 350.185 409.222 351.291 413.17C352.398 417.118 356.496 419.422 360.444 418.315ZM359.108 413.549C360.424 413.18 361.192 411.814 360.823 410.498C360.454 409.182 359.088 408.414 357.772 408.783C356.456 409.152 355.688 410.518 356.057 411.834C356.426 413.15 357.792 413.918 359.108 413.549Z" fill="#895129"/>
<path fill-rule="evenodd" clip-rule="evenodd" d="M347.294 404.711C351.242 403.605 353.545 399.507 352.438 395.559C351.331 391.611 347.233 389.307 343.285 390.414C339.337 391.521 337.034 395.619 338.141 399.567C339.248 403.515 343.346 405.818 347.294 404.711ZM345.958 399.946C347.274 399.577 348.041 398.211 347.672 396.895C347.303 395.579 345.937 394.811 344.621 395.18C343.305 395.549 342.538 396.915 342.907 398.231C343.276 399.547 344.642 400.315 345.958 399.946Z" fill="#895129"/>
</svg>
