<svg width="121" height="121" viewBox="0 0 121 121" fill="none" xmlns="http://www.w3.org/2000/svg">
<mask id="path-1-inside-1_65_25" fill="white">
<path d="M46.3586 34.3499C45.6258 33.6171 45.6258 32.4291 46.3586 31.6964L49.0121 29.0428C49.7449 28.3101 50.9329 28.3101 51.6656 29.0428C52.3984 29.7756 52.3984 30.9636 51.6656 31.6964L49.0121 34.3499C48.2794 35.0826 47.0913 35.0826 46.3586 34.3499Z"/>
<path d="M36.6017 40.3808C35.8689 41.1135 35.8689 42.3015 36.6017 43.0343C37.3344 43.767 38.5224 43.767 39.2552 43.0343L41.9087 40.3808C42.6415 39.648 42.6415 38.46 41.9087 37.7272C41.176 36.9945 39.9879 36.9945 39.2552 37.7272L36.6017 40.3808Z"/>
<path d="M47.8596 44.1334C47.1269 44.8662 47.1269 46.0542 47.8596 46.7869C48.5924 47.5197 49.7804 47.5197 50.5131 46.7869L53.1667 44.1334C53.8994 43.4007 53.8994 42.2126 53.1667 41.4799C52.4339 40.7471 51.2459 40.7471 50.5131 41.4799L47.8596 44.1334Z"/>
<path d="M59.1176 32.8755C58.3848 33.6082 58.3848 34.7962 59.1176 35.529C59.8503 36.2617 61.0383 36.2617 61.7711 35.529L64.4246 32.8755C65.1574 32.1427 65.1574 30.9547 64.4246 30.2219C63.6919 29.4892 62.5038 29.4892 61.7711 30.2219L59.1176 32.8755Z"/>
<path d="M70.3755 39.2816C69.6428 38.5489 69.6428 37.3609 70.3755 36.6281L73.029 33.9746C73.7618 33.2418 74.9498 33.2418 75.6825 33.9746C76.4153 34.7073 76.4153 35.8954 75.6825 36.6281L73.029 39.2816C72.2963 40.0144 71.1083 40.0144 70.3755 39.2816Z"/>
<path d="M77.8808 44.1334C77.148 44.8662 77.148 46.0542 77.8808 46.7869C78.6135 47.5197 79.8016 47.5197 80.5343 46.7869L83.1878 44.1334C83.9206 43.4007 83.9206 42.2126 83.1878 41.4799C82.4551 40.7471 81.2671 40.7471 80.5343 41.4799L77.8808 44.1334Z"/>
<path d="M61.3692 47.9128C60.6364 47.18 60.6364 45.992 61.3692 45.2592L64.0227 42.6057C64.7554 41.873 65.9435 41.873 66.6762 42.6057C67.409 43.3385 67.409 44.5265 66.6762 45.2592L64.0227 47.9128C63.2899 48.6455 62.1019 48.6455 61.3692 47.9128Z"/>
<path fill-rule="evenodd" clip-rule="evenodd" d="M25.1893 54.7099C21.0451 54.6239 17.6639 51.1336 18.8589 47.1646C19.4215 45.2963 20.1826 43.4673 21.1369 41.6984C23.3235 37.6452 26.481 33.9867 30.4292 30.9318C34.3774 27.8768 39.039 25.4853 44.1478 23.8936C49.2566 22.3019 54.7126 21.5414 60.2042 21.6553C65.6958 21.7693 71.1155 22.7555 76.1539 24.5577C81.1923 26.3599 85.7506 28.9427 89.5687 32.1588C93.3868 35.3749 96.3899 39.1612 98.4064 43.3016C98.7266 43.959 99.021 44.6234 99.2892 45.2936C101.6 51.066 96.2823 56.185 90.066 56.056L25.1893 54.7099ZM22.4523 48.2465C22.9401 46.6261 23.6028 45.0312 24.4396 43.4801C26.357 39.9259 29.1568 36.6611 32.7257 33.8997C36.2955 31.1375 40.5513 28.9447 45.264 27.4764C49.9763 26.0083 55.0284 25.3014 60.1263 25.4072C65.2243 25.5129 70.2427 26.4288 74.89 28.0911C79.5378 29.7536 83.6989 32.1211 87.1511 35.029C90.6024 37.936 93.2644 41.3141 95.0327 44.9448C95.3135 45.5214 95.571 46.1028 95.8053 46.688C96.3676 48.093 96.0598 49.3134 95.1073 50.3537C94.0654 51.4917 92.2432 52.3477 90.1439 52.3041L25.2671 50.9581C24.2046 50.936 23.3315 50.4739 22.8391 49.9143C22.3973 49.4122 22.2639 48.8721 22.4523 48.2465Z"/>
<path d="M24.3923 91.9397C20.2472 91.9397 16.887 95.2999 16.887 99.445C16.887 103.59 20.2472 106.95 24.3923 106.95H78.8056C79.8419 106.95 80.682 106.11 80.682 105.074C80.682 104.038 79.8419 103.198 78.8056 103.198H24.3923C22.3197 103.198 20.6396 101.517 20.6396 99.445C20.6396 97.3724 22.3197 95.6923 24.3923 95.6923H95.6926C97.7651 95.6923 99.4452 97.3724 99.4452 99.445C99.4452 101.517 97.7651 103.198 95.6926 103.198H88.1873C87.151 103.198 86.3109 104.038 86.3109 105.074C86.3109 106.11 87.151 106.95 88.1873 106.95H95.6926C99.8376 106.95 103.198 103.59 103.198 99.445C103.198 95.2999 99.8376 91.9397 95.6926 91.9397H24.3923Z"/>
<path d="M20.0255 60.5301C21.1791 61.5789 22.1252 61.9185 22.8912 61.9185C23.6572 61.9185 24.6033 61.5789 25.757 60.5301C27.3553 59.0771 29.1611 58.1658 31.147 58.1658C33.133 58.1658 34.9388 59.0771 36.5371 60.5301C37.6907 61.5789 38.6368 61.9185 39.4029 61.9185C40.1689 61.9185 41.115 61.5789 42.2686 60.5301C43.8669 59.0771 45.6728 58.1658 47.6587 58.1658C49.6446 58.1658 51.4504 59.0771 53.0487 60.5301C54.2024 61.5789 55.1485 61.9185 55.9145 61.9185C56.6805 61.9185 57.6266 61.5789 58.7803 60.5301C60.3786 59.0771 62.1844 58.1658 64.1703 58.1658C66.1562 58.1658 67.9621 59.0771 69.5604 60.5301C70.714 61.5789 71.6601 61.9185 72.4262 61.9185C73.1922 61.9185 74.1383 61.5789 75.2919 60.5301C76.8902 59.0771 78.6961 58.1658 80.682 58.1658C82.6679 58.1658 84.4737 59.0771 86.072 60.5301C87.2257 61.5789 88.1718 61.9185 88.9378 61.9185C89.7038 61.9185 90.6499 61.5789 91.8036 60.5301C93.4019 59.0771 95.2077 58.1658 97.1936 58.1658C99.1795 58.1658 100.985 59.0771 102.584 60.5301C103.35 61.2272 103.407 62.4139 102.71 63.1806C102.013 63.9474 100.826 64.0039 100.059 63.3069C98.9058 62.2581 97.9597 61.9185 97.1936 61.9185C96.4276 61.9185 95.4815 62.2581 94.3279 63.3069C92.7296 64.7599 90.9237 65.6711 88.9378 65.6711C86.9519 65.6711 85.1461 64.7599 83.5477 63.3069C82.3941 62.2581 81.448 61.9185 80.682 61.9185C79.916 61.9185 78.9699 62.2581 77.8162 63.3069C76.2179 64.7599 74.4121 65.6711 72.4262 65.6711C70.4402 65.6711 68.6344 64.7599 67.0361 63.3069C65.8825 62.2581 64.9364 61.9185 64.1703 61.9185C63.4043 61.9185 62.4582 62.2581 61.3046 63.3069C59.7063 64.7599 57.9004 65.6711 55.9145 65.6711C53.9286 65.6711 52.1228 64.7599 50.5244 63.3069C49.3708 62.2581 48.4247 61.9185 47.6587 61.9185C46.8927 61.9185 45.9466 62.2581 44.7929 63.3069C43.1946 64.7599 41.3888 65.6711 39.4029 65.6711C37.4169 65.6711 35.6111 64.7599 34.0128 63.3069C32.8592 62.2581 31.9131 61.9185 31.147 61.9185C30.381 61.9185 29.4349 62.2581 28.2813 63.3069C26.683 64.7599 24.8771 65.6711 22.8912 65.6711C20.9053 65.6711 19.0995 64.7599 17.5011 63.3069C16.7344 62.6098 16.6779 61.4231 17.3749 60.6563C18.072 59.8896 19.2587 59.8331 20.0255 60.5301Z"/>
<path d="M24.3923 75.0528C24.3923 74.0165 25.2323 73.1764 26.2686 73.1764H97.5689C98.6052 73.1764 99.4452 72.3364 99.4452 71.3001C99.4452 70.2638 98.6052 69.4238 97.5689 69.4238H26.2686C23.1598 69.4238 20.6396 71.944 20.6396 75.0528C20.6396 78.1616 23.1598 80.6817 26.2686 80.6817H93.8162C94.8525 80.6817 95.6926 81.5218 95.6926 82.5581C95.6926 83.5943 94.8525 84.4344 93.8162 84.4344H22.5159C21.4797 84.4344 20.6396 85.2744 20.6396 86.3107C20.6396 87.347 21.4797 88.187 22.5159 88.187H93.8162C96.925 88.187 99.4452 85.6668 99.4452 82.5581C99.4452 79.4493 96.925 76.9291 93.8162 76.9291H26.2686C25.2323 76.9291 24.3923 76.089 24.3923 75.0528Z"/>
</mask>
<path d="M46.3586 34.3499C45.6258 33.6171 45.6258 32.4291 46.3586 31.6964L49.0121 29.0428C49.7449 28.3101 50.9329 28.3101 51.6656 29.0428C52.3984 29.7756 52.3984 30.9636 51.6656 31.6964L49.0121 34.3499C48.2794 35.0826 47.0913 35.0826 46.3586 34.3499Z" fill="#895129"/>
<path d="M36.6017 40.3808C35.8689 41.1135 35.8689 42.3015 36.6017 43.0343C37.3344 43.767 38.5224 43.767 39.2552 43.0343L41.9087 40.3808C42.6415 39.648 42.6415 38.46 41.9087 37.7272C41.176 36.9945 39.9879 36.9945 39.2552 37.7272L36.6017 40.3808Z" fill="#895129"/>
<path d="M47.8596 44.1334C47.1269 44.8662 47.1269 46.0542 47.8596 46.7869C48.5924 47.5197 49.7804 47.5197 50.5131 46.7869L53.1667 44.1334C53.8994 43.4007 53.8994 42.2126 53.1667 41.4799C52.4339 40.7471 51.2459 40.7471 50.5131 41.4799L47.8596 44.1334Z" fill="#895129"/>
<path d="M59.1176 32.8755C58.3848 33.6082 58.3848 34.7962 59.1176 35.529C59.8503 36.2617 61.0383 36.2617 61.7711 35.529L64.4246 32.8755C65.1574 32.1427 65.1574 30.9547 64.4246 30.2219C63.6919 29.4892 62.5038 29.4892 61.7711 30.2219L59.1176 32.8755Z" fill="#895129"/>
<path d="M70.3755 39.2816C69.6428 38.5489 69.6428 37.3609 70.3755 36.6281L73.029 33.9746C73.7618 33.2418 74.9498 33.2418 75.6825 33.9746C76.4153 34.7073 76.4153 35.8954 75.6825 36.6281L73.029 39.2816C72.2963 40.0144 71.1083 40.0144 70.3755 39.2816Z" fill="#895129"/>
<path d="M77.8808 44.1334C77.148 44.8662 77.148 46.0542 77.8808 46.7869C78.6135 47.5197 79.8016 47.5197 80.5343 46.7869L83.1878 44.1334C83.9206 43.4007 83.9206 42.2126 83.1878 41.4799C82.4551 40.7471 81.2671 40.7471 80.5343 41.4799L77.8808 44.1334Z" fill="#895129"/>
<path d="M61.3692 47.9128C60.6364 47.18 60.6364 45.992 61.3692 45.2592L64.0227 42.6057C64.7554 41.873 65.9435 41.873 66.6762 42.6057C67.409 43.3385 67.409 44.5265 66.6762 45.2592L64.0227 47.9128C63.2899 48.6455 62.1019 48.6455 61.3692 47.9128Z" fill="#895129"/>
<path fill-rule="evenodd" clip-rule="evenodd" d="M25.1893 54.7099C21.0451 54.6239 17.6639 51.1336 18.8589 47.1646C19.4215 45.2963 20.1826 43.4673 21.1369 41.6984C23.3235 37.6452 26.481 33.9867 30.4292 30.9318C34.3774 27.8768 39.039 25.4853 44.1478 23.8936C49.2566 22.3019 54.7126 21.5414 60.2042 21.6553C65.6958 21.7693 71.1155 22.7555 76.1539 24.5577C81.1923 26.3599 85.7506 28.9427 89.5687 32.1588C93.3868 35.3749 96.3899 39.1612 98.4064 43.3016C98.7266 43.959 99.021 44.6234 99.2892 45.2936C101.6 51.066 96.2823 56.185 90.066 56.056L25.1893 54.7099ZM22.4523 48.2465C22.9401 46.6261 23.6028 45.0312 24.4396 43.4801C26.357 39.9259 29.1568 36.6611 32.7257 33.8997C36.2955 31.1375 40.5513 28.9447 45.264 27.4764C49.9763 26.0083 55.0284 25.3014 60.1263 25.4072C65.2243 25.5129 70.2427 26.4288 74.89 28.0911C79.5378 29.7536 83.6989 32.1211 87.1511 35.029C90.6024 37.936 93.2644 41.3141 95.0327 44.9448C95.3135 45.5214 95.571 46.1028 95.8053 46.688C96.3676 48.093 96.0598 49.3134 95.1073 50.3537C94.0654 51.4917 92.2432 52.3477 90.1439 52.3041L25.2671 50.9581C24.2046 50.936 23.3315 50.4739 22.8391 49.9143C22.3973 49.4122 22.2639 48.8721 22.4523 48.2465Z" fill="#895129"/>
<path d="M24.3923 91.9397C20.2472 91.9397 16.887 95.2999 16.887 99.445C16.887 103.59 20.2472 106.95 24.3923 106.95H78.8056C79.8419 106.95 80.682 106.11 80.682 105.074C80.682 104.038 79.8419 103.198 78.8056 103.198H24.3923C22.3197 103.198 20.6396 101.517 20.6396 99.445C20.6396 97.3724 22.3197 95.6923 24.3923 95.6923H95.6926C97.7651 95.6923 99.4452 97.3724 99.4452 99.445C99.4452 101.517 97.7651 103.198 95.6926 103.198H88.1873C87.151 103.198 86.3109 104.038 86.3109 105.074C86.3109 106.11 87.151 106.95 88.1873 106.95H95.6926C99.8376 106.95 103.198 103.59 103.198 99.445C103.198 95.2999 99.8376 91.9397 95.6926 91.9397H24.3923Z" fill="#895129"/>
<path d="M20.0255 60.5301C21.1791 61.5789 22.1252 61.9185 22.8912 61.9185C23.6572 61.9185 24.6033 61.5789 25.757 60.5301C27.3553 59.0771 29.1611 58.1658 31.147 58.1658C33.133 58.1658 34.9388 59.0771 36.5371 60.5301C37.6907 61.5789 38.6368 61.9185 39.4029 61.9185C40.1689 61.9185 41.115 61.5789 42.2686 60.5301C43.8669 59.0771 45.6728 58.1658 47.6587 58.1658C49.6446 58.1658 51.4504 59.0771 53.0487 60.5301C54.2024 61.5789 55.1485 61.9185 55.9145 61.9185C56.6805 61.9185 57.6266 61.5789 58.7803 60.5301C60.3786 59.0771 62.1844 58.1658 64.1703 58.1658C66.1562 58.1658 67.9621 59.0771 69.5604 60.5301C70.714 61.5789 71.6601 61.9185 72.4262 61.9185C73.1922 61.9185 74.1383 61.5789 75.2919 60.5301C76.8902 59.0771 78.6961 58.1658 80.682 58.1658C82.6679 58.1658 84.4737 59.0771 86.072 60.5301C87.2257 61.5789 88.1718 61.9185 88.9378 61.9185C89.7038 61.9185 90.6499 61.5789 91.8036 60.5301C93.4019 59.0771 95.2077 58.1658 97.1936 58.1658C99.1795 58.1658 100.985 59.0771 102.584 60.5301C103.35 61.2272 103.407 62.4139 102.71 63.1806C102.013 63.9474 100.826 64.0039 100.059 63.3069C98.9058 62.2581 97.9597 61.9185 97.1936 61.9185C96.4276 61.9185 95.4815 62.2581 94.3279 63.3069C92.7296 64.7599 90.9237 65.6711 88.9378 65.6711C86.9519 65.6711 85.1461 64.7599 83.5477 63.3069C82.3941 62.2581 81.448 61.9185 80.682 61.9185C79.916 61.9185 78.9699 62.2581 77.8162 63.3069C76.2179 64.7599 74.4121 65.6711 72.4262 65.6711C70.4402 65.6711 68.6344 64.7599 67.0361 63.3069C65.8825 62.2581 64.9364 61.9185 64.1703 61.9185C63.4043 61.9185 62.4582 62.2581 61.3046 63.3069C59.7063 64.7599 57.9004 65.6711 55.9145 65.6711C53.9286 65.6711 52.1228 64.7599 50.5244 63.3069C49.3708 62.2581 48.4247 61.9185 47.6587 61.9185C46.8927 61.9185 45.9466 62.2581 44.7929 63.3069C43.1946 64.7599 41.3888 65.6711 39.4029 65.6711C37.4169 65.6711 35.6111 64.7599 34.0128 63.3069C32.8592 62.2581 31.9131 61.9185 31.147 61.9185C30.381 61.9185 29.4349 62.2581 28.2813 63.3069C26.683 64.7599 24.8771 65.6711 22.8912 65.6711C20.9053 65.6711 19.0995 64.7599 17.5011 63.3069C16.7344 62.6098 16.6779 61.4231 17.3749 60.6563C18.072 59.8896 19.2587 59.8331 20.0255 60.5301Z" fill="#895129"/>
<path d="M24.3923 75.0528C24.3923 74.0165 25.2323 73.1764 26.2686 73.1764H97.5689C98.6052 73.1764 99.4452 72.3364 99.4452 71.3001C99.4452 70.2638 98.6052 69.4238 97.5689 69.4238H26.2686C23.1598 69.4238 20.6396 71.944 20.6396 75.0528C20.6396 78.1616 23.1598 80.6817 26.2686 80.6817H93.8162C94.8525 80.6817 95.6926 81.5218 95.6926 82.5581C95.6926 83.5943 94.8525 84.4344 93.8162 84.4344H22.5159C21.4797 84.4344 20.6396 85.2744 20.6396 86.3107C20.6396 87.347 21.4797 88.187 22.5159 88.187H93.8162C96.925 88.187 99.4452 85.6668 99.4452 82.5581C99.4452 79.4493 96.925 76.9291 93.8162 76.9291H26.2686C25.2323 76.9291 24.3923 76.089 24.3923 75.0528Z" fill="#895129"/>
<path d="M46.3586 34.3499C45.6258 33.6171 45.6258 32.4291 46.3586 31.6964L49.0121 29.0428C49.7449 28.3101 50.9329 28.3101 51.6656 29.0428C52.3984 29.7756 52.3984 30.9636 51.6656 31.6964L49.0121 34.3499C48.2794 35.0826 47.0913 35.0826 46.3586 34.3499Z" stroke="#895129" stroke-width="7.5053" mask="url(#path-1-inside-1_65_25)"/>
<path d="M36.6017 40.3808C35.8689 41.1135 35.8689 42.3015 36.6017 43.0343C37.3344 43.767 38.5224 43.767 39.2552 43.0343L41.9087 40.3808C42.6415 39.648 42.6415 38.46 41.9087 37.7272C41.176 36.9945 39.9879 36.9945 39.2552 37.7272L36.6017 40.3808Z" stroke="#895129" stroke-width="7.5053" mask="url(#path-1-inside-1_65_25)"/>
<path d="M47.8596 44.1334C47.1269 44.8662 47.1269 46.0542 47.8596 46.7869C48.5924 47.5197 49.7804 47.5197 50.5131 46.7869L53.1667 44.1334C53.8994 43.4007 53.8994 42.2126 53.1667 41.4799C52.4339 40.7471 51.2459 40.7471 50.5131 41.4799L47.8596 44.1334Z" stroke="#895129" stroke-width="7.5053" mask="url(#path-1-inside-1_65_25)"/>
<path d="M59.1176 32.8755C58.3848 33.6082 58.3848 34.7962 59.1176 35.529C59.8503 36.2617 61.0383 36.2617 61.7711 35.529L64.4246 32.8755C65.1574 32.1427 65.1574 30.9547 64.4246 30.2219C63.6919 29.4892 62.5038 29.4892 61.7711 30.2219L59.1176 32.8755Z" stroke="#895129" stroke-width="7.5053" mask="url(#path-1-inside-1_65_25)"/>
<path d="M70.3755 39.2816C69.6428 38.5489 69.6428 37.3609 70.3755 36.6281L73.029 33.9746C73.7618 33.2418 74.9498 33.2418 75.6825 33.9746C76.4153 34.7073 76.4153 35.8954 75.6825 36.6281L73.029 39.2816C72.2963 40.0144 71.1083 40.0144 70.3755 39.2816Z" stroke="#895129" stroke-width="7.5053" mask="url(#path-1-inside-1_65_25)"/>
<path d="M77.8808 44.1334C77.148 44.8662 77.148 46.0542 77.8808 46.7869C78.6135 47.5197 79.8016 47.5197 80.5343 46.7869L83.1878 44.1334C83.9206 43.4007 83.9206 42.2126 83.1878 41.4799C82.4551 40.7471 81.2671 40.7471 80.5343 41.4799L77.8808 44.1334Z" stroke="#895129" stroke-width="7.5053" mask="url(#path-1-inside-1_65_25)"/>
<path d="M61.3692 47.9128C60.6364 47.18 60.6364 45.992 61.3692 45.2592L64.0227 42.6057C64.7554 41.873 65.9435 41.873 66.6762 42.6057C67.409 43.3385 67.409 44.5265 66.6762 45.2592L64.0227 47.9128C63.2899 48.6455 62.1019 48.6455 61.3692 47.9128Z" stroke="#895129" stroke-width="7.5053" mask="url(#path-1-inside-1_65_25)"/>
<path fill-rule="evenodd" clip-rule="evenodd" d="M25.1893 54.7099C21.0451 54.6239 17.6639 51.1336 18.8589 47.1646C19.4215 45.2963 20.1826 43.4673 21.1369 41.6984C23.3235 37.6452 26.481 33.9867 30.4292 30.9318C34.3774 27.8768 39.039 25.4853 44.1478 23.8936C49.2566 22.3019 54.7126 21.5414 60.2042 21.6553C65.6958 21.7693 71.1155 22.7555 76.1539 24.5577C81.1923 26.3599 85.7506 28.9427 89.5687 32.1588C93.3868 35.3749 96.3899 39.1612 98.4064 43.3016C98.7266 43.959 99.021 44.6234 99.2892 45.2936C101.6 51.066 96.2823 56.185 90.066 56.056L25.1893 54.7099ZM22.4523 48.2465C22.9401 46.6261 23.6028 45.0312 24.4396 43.4801C26.357 39.9259 29.1568 36.6611 32.7257 33.8997C36.2955 31.1375 40.5513 28.9447 45.264 27.4764C49.9763 26.0083 55.0284 25.3014 60.1263 25.4072C65.2243 25.5129 70.2427 26.4288 74.89 28.0911C79.5378 29.7536 83.6989 32.1211 87.1511 35.029C90.6024 37.936 93.2644 41.3141 95.0327 44.9448C95.3135 45.5214 95.571 46.1028 95.8053 46.688C96.3676 48.093 96.0598 49.3134 95.1073 50.3537C94.0654 51.4917 92.2432 52.3477 90.1439 52.3041L25.2671 50.9581C24.2046 50.936 23.3315 50.4739 22.8391 49.9143C22.3973 49.4122 22.2639 48.8721 22.4523 48.2465Z" stroke="#895129" stroke-width="7.5053" mask="url(#path-1-inside-1_65_25)"/>
<path d="M24.3923 91.9397C20.2472 91.9397 16.887 95.2999 16.887 99.445C16.887 103.59 20.2472 106.95 24.3923 106.95H78.8056C79.8419 106.95 80.682 106.11 80.682 105.074C80.682 104.038 79.8419 103.198 78.8056 103.198H24.3923C22.3197 103.198 20.6396 101.517 20.6396 99.445C20.6396 97.3724 22.3197 95.6923 24.3923 95.6923H95.6926C97.7651 95.6923 99.4452 97.3724 99.4452 99.445C99.4452 101.517 97.7651 103.198 95.6926 103.198H88.1873C87.151 103.198 86.3109 104.038 86.3109 105.074C86.3109 106.11 87.151 106.95 88.1873 106.95H95.6926C99.8376 106.95 103.198 103.59 103.198 99.445C103.198 95.2999 99.8376 91.9397 95.6926 91.9397H24.3923Z" stroke="#895129" stroke-width="7.5053" mask="url(#path-1-inside-1_65_25)"/>
<path d="M20.0255 60.5301C21.1791 61.5789 22.1252 61.9185 22.8912 61.9185C23.6572 61.9185 24.6033 61.5789 25.757 60.5301C27.3553 59.0771 29.1611 58.1658 31.147 58.1658C33.133 58.1658 34.9388 59.0771 36.5371 60.5301C37.6907 61.5789 38.6368 61.9185 39.4029 61.9185C40.1689 61.9185 41.115 61.5789 42.2686 60.5301C43.8669 59.0771 45.6728 58.1658 47.6587 58.1658C49.6446 58.1658 51.4504 59.0771 53.0487 60.5301C54.2024 61.5789 55.1485 61.9185 55.9145 61.9185C56.6805 61.9185 57.6266 61.5789 58.7803 60.5301C60.3786 59.0771 62.1844 58.1658 64.1703 58.1658C66.1562 58.1658 67.9621 59.0771 69.5604 60.5301C70.714 61.5789 71.6601 61.9185 72.4262 61.9185C73.1922 61.9185 74.1383 61.5789 75.2919 60.5301C76.8902 59.0771 78.6961 58.1658 80.682 58.1658C82.6679 58.1658 84.4737 59.0771 86.072 60.5301C87.2257 61.5789 88.1718 61.9185 88.9378 61.9185C89.7038 61.9185 90.6499 61.5789 91.8036 60.5301C93.4019 59.0771 95.2077 58.1658 97.1936 58.1658C99.1795 58.1658 100.985 59.0771 102.584 60.5301C103.35 61.2272 103.407 62.4139 102.71 63.1806C102.013 63.9474 100.826 64.0039 100.059 63.3069C98.9058 62.2581 97.9597 61.9185 97.1936 61.9185C96.4276 61.9185 95.4815 62.2581 94.3279 63.3069C92.7296 64.7599 90.9237 65.6711 88.9378 65.6711C86.9519 65.6711 85.1461 64.7599 83.5477 63.3069C82.3941 62.2581 81.448 61.9185 80.682 61.9185C79.916 61.9185 78.9699 62.2581 77.8162 63.3069C76.2179 64.7599 74.4121 65.6711 72.4262 65.6711C70.4402 65.6711 68.6344 64.7599 67.0361 63.3069C65.8825 62.2581 64.9364 61.9185 64.1703 61.9185C63.4043 61.9185 62.4582 62.2581 61.3046 63.3069C59.7063 64.7599 57.9004 65.6711 55.9145 65.6711C53.9286 65.6711 52.1228 64.7599 50.5244 63.3069C49.3708 62.2581 48.4247 61.9185 47.6587 61.9185C46.8927 61.9185 45.9466 62.2581 44.7929 63.3069C43.1946 64.7599 41.3888 65.6711 39.4029 65.6711C37.4169 65.6711 35.6111 64.7599 34.0128 63.3069C32.8592 62.2581 31.9131 61.9185 31.147 61.9185C30.381 61.9185 29.4349 62.2581 28.2813 63.3069C26.683 64.7599 24.8771 65.6711 22.8912 65.6711C20.9053 65.6711 19.0995 64.7599 17.5011 63.3069C16.7344 62.6098 16.6779 61.4231 17.3749 60.6563C18.072 59.8896 19.2587 59.8331 20.0255 60.5301Z" stroke="#895129" stroke-width="7.5053" mask="url(#path-1-inside-1_65_25)"/>
<path d="M24.3923 75.0528C24.3923 74.0165 25.2323 73.1764 26.2686 73.1764H97.5689C98.6052 73.1764 99.4452 72.3364 99.4452 71.3001C99.4452 70.2638 98.6052 69.4238 97.5689 69.4238H26.2686C23.1598 69.4238 20.6396 71.944 20.6396 75.0528C20.6396 78.1616 23.1598 80.6817 26.2686 80.6817H93.8162C94.8525 80.6817 95.6926 81.5218 95.6926 82.5581C95.6926 83.5943 94.8525 84.4344 93.8162 84.4344H22.5159C21.4797 84.4344 20.6396 85.2744 20.6396 86.3107C20.6396 87.347 21.4797 88.187 22.5159 88.187H93.8162C96.925 88.187 99.4452 85.6668 99.4452 82.5581C99.4452 79.4493 96.925 76.9291 93.8162 76.9291H26.2686C25.2323 76.9291 24.3923 76.089 24.3923 75.0528Z" stroke="#895129" stroke-width="7.5053" mask="url(#path-1-inside-1_65_25)"/>
</svg>
