<svg width="121" height="121" viewBox="0 0 121 121" fill="none" xmlns="http://www.w3.org/2000/svg">
<path fill-rule="evenodd" clip-rule="evenodd" d="M46.9968 23.3966C46.9968 20.2868 49.5178 17.7657 52.6277 17.7657H56.3817C57.8239 17.7657 59.1394 18.3079 60.1357 19.1995C61.1319 18.3079 62.4474 17.7657 63.8896 17.7657H67.6436C70.7535 17.7657 73.2746 20.2868 73.2746 23.3966V25.594C73.8617 25.3865 74.4934 25.2736 75.1516 25.2736H78.9055C82.0154 25.2736 84.5365 27.7947 84.5365 30.9046V44.0435H89.7991C93.1166 44.0435 95.7151 46.8971 95.4055 50.2001L90.1593 106.159C90.0625 107.191 89.1474 107.95 88.1153 107.853C87.0832 107.756 86.3249 106.841 86.4217 105.809L91.6679 49.8497C91.7711 48.7487 90.9049 47.7975 89.7991 47.7975H84.4025C84.1136 49.2647 83.3708 50.6307 82.3016 51.8431C80.9171 53.4129 78.9728 54.7471 76.667 55.8225C74.3518 56.9023 71.6513 57.731 68.7328 58.2796C65.8111 58.8288 62.702 59.0914 59.5838 59.0563C56.4657 59.0212 53.3832 58.689 50.5134 58.0735C47.6473 57.4588 45.0206 56.5673 42.7999 55.4292C40.589 54.2961 38.7518 52.9033 37.5 51.2731C36.6782 50.203 36.1123 49.0312 35.869 47.7975H30.4723C29.3664 47.7975 28.5003 48.7487 28.6035 49.8497L33.5306 102.405C33.621 103.37 34.4306 104.107 35.3994 104.107H78.9056C79.9422 104.107 80.7825 104.947 80.7825 105.984C80.7825 107.021 79.9422 107.861 78.9056 107.861H35.3994C32.4931 107.861 30.0643 105.649 29.793 102.756L24.8659 50.2001C24.5562 46.8971 27.1548 44.0435 30.4723 44.0435H35.7348V30.9046C35.7348 27.7947 38.2559 25.2736 41.3658 25.2736H45.1198C45.7779 25.2736 46.4097 25.3865 46.9968 25.594V23.3966ZM39.4888 45.6122C39.5152 45.7714 39.5214 45.9367 39.5047 46.105C39.4184 46.9789 39.6787 47.9467 40.4774 48.9867C41.2928 50.0487 42.6294 51.1235 44.512 52.0884C45.272 52.4779 46.103 52.8402 46.9968 53.1706V30.9046C46.9968 29.868 46.1564 29.0276 45.1198 29.0276H41.3658C40.3292 29.0276 39.4888 29.868 39.4888 30.9046V45.6122ZM50.5678 54.2378C50.8092 54.2949 51.0535 54.35 51.3006 54.403C53.4953 54.8737 55.8485 55.1662 58.2587 55.2665V23.3966C58.2587 22.36 57.4183 21.5197 56.3817 21.5197H52.6277C51.5911 21.5197 50.7507 22.36 50.7507 23.3966V53.4284C50.7507 53.7182 50.6851 53.9927 50.5678 54.2378ZM62.0127 55.2665C64.0805 55.1805 66.1111 54.9527 68.0393 54.5903C68.5433 54.4955 69.0373 54.3922 69.5206 54.2805V23.3966C69.5206 22.36 68.6802 21.5197 67.6436 21.5197H63.8896C62.853 21.5197 62.0127 22.36 62.0127 23.3966V55.2665ZM73.2746 53.1707C73.9083 52.9364 74.5112 52.6857 75.0803 52.4203C77.0705 51.4922 78.5399 50.4329 79.4861 49.36C80.4178 48.3036 80.7799 47.3126 80.7825 46.4369V30.9046C80.7825 29.868 79.9422 29.0276 78.9055 29.0276H75.1516C74.1149 29.0276 73.2746 29.868 73.2746 30.9046V53.1707Z" fill="#895129"/>
<path d="M68.0831 84.0505C69.8461 80.2974 68.2329 75.8258 64.4799 74.0627C60.7268 72.2997 56.2551 73.9129 54.4921 77.6659C52.7291 81.419 54.3423 85.8907 58.0953 87.6537C59.0336 88.0945 59.4369 89.2124 58.9961 90.1506C58.5554 91.0889 57.4374 91.4922 56.4992 91.0515C50.8696 88.4069 48.4498 81.6994 51.0944 76.0698C53.7389 70.4402 60.4464 68.0204 66.076 70.665C71.7056 73.3095 74.1254 80.017 71.4808 85.6466C70.1895 88.3956 67.9256 90.3812 65.2968 91.3824C64.328 91.7513 63.2436 91.2651 62.8746 90.2963C62.5057 89.3276 62.9919 88.2431 63.9607 87.8742C65.7172 87.2052 67.2216 85.8843 68.0831 84.0505Z" fill="#895129"/>
</svg>
