<svg width="121" height="121" viewBox="0 0 121 121" fill="none" xmlns="http://www.w3.org/2000/svg">
<path fill-rule="evenodd" clip-rule="evenodd" d="M85.5044 16.1708C80.1091 13.0558 73.2101 14.9044 70.0951 20.2997L30.6092 88.6913C27.4968 94.0821 29.3439 100.975 34.7347 104.088C40.1331 107.205 47.0363 105.347 50.1424 99.9428L69.1474 66.873C69.6648 65.9727 69.3544 64.8235 68.4541 64.3061C67.5539 63.7888 66.4047 64.0992 65.8873 64.9994L46.8823 98.0692C44.8124 101.671 40.2122 102.908 36.6148 100.831C33.0224 98.7573 31.7915 94.1638 33.8656 90.5714L73.3515 22.1798C75.4282 18.5829 80.0275 17.3505 83.6243 19.4272C87.2212 21.5038 88.4536 26.1031 86.3769 29.7L74.7279 49.8768L71.4047 55.6326C70.8856 56.5318 71.1937 57.6816 72.0929 58.2008C72.9921 58.7199 74.1419 58.4119 74.6611 57.5126L77.9842 51.7568L89.6333 31.5801C92.7483 26.1848 90.8997 19.2858 85.5044 16.1708ZM56.4915 27.3386L29.8626 74.1446C28.8145 75.9868 26.6336 76.8619 24.6029 76.255C21.8045 75.4188 20.5065 72.2008 21.9416 69.6571L35.2563 46.0559L48.4014 22.7553C49.8863 20.1231 53.4484 19.5851 55.6444 21.6613C57.2008 23.1327 57.5506 25.477 56.4915 27.3386ZM59.7597 29.1979L33.1308 76.0039C31.217 79.368 27.2346 80.9659 23.5263 79.8577C18.4163 78.3307 16.0462 72.4546 18.6667 67.8095L31.9814 44.2083L45.1265 20.9077C47.8124 16.1468 54.2554 15.1736 58.2276 18.9289C61.0428 21.5903 61.6754 25.8307 59.7597 29.1979ZM71.2835 98.0591L97.9123 51.2531C98.9714 49.3915 98.6217 47.0472 97.0653 45.5758C94.8692 43.4996 91.3072 44.0377 89.8222 46.6698L76.6771 69.9704L63.3625 93.5716C61.9274 96.1154 63.2253 99.3333 66.0237 100.17C68.0545 100.776 70.2354 99.9013 71.2835 98.0591ZM74.5517 99.9185L101.181 53.1124C103.096 49.7452 102.464 45.5048 99.6484 42.8434C95.6762 39.0881 89.2332 40.0613 86.5473 44.8222L73.4022 68.1228L60.0875 91.724C57.467 96.3691 59.8371 102.245 64.9471 103.772C68.6554 104.88 72.6378 103.282 74.5517 99.9185ZM42.2362 87.8264C46.1061 85.5062 48.0169 82.1965 48.0914 77.685C48.1873 71.8745 50.7886 67.3689 55.7726 64.3807C59.6425 62.0604 61.5534 58.7507 61.6278 54.2392C61.7237 48.4287 64.325 43.9232 69.3091 40.9349C73.1789 38.6147 75.0898 35.305 75.1642 30.7934C75.1814 29.7552 76.0369 28.9275 77.0751 28.9447C78.1132 28.9618 78.941 29.8173 78.9238 30.8555C78.828 36.6659 76.2267 41.1715 71.2426 44.1598C67.3727 46.48 65.4619 49.7897 65.3874 54.3012C65.2915 60.1117 62.6903 64.6173 57.7062 67.6055C53.8363 69.9258 51.9255 73.2355 51.851 77.747C51.7551 83.5575 49.1538 88.063 44.1698 91.0513C43.2792 91.5852 42.1245 91.2962 41.5905 90.4056C41.0566 89.5151 41.3457 88.3604 42.2362 87.8264Z" fill="#895129"/>
</svg>
