<svg width="120" height="120" viewBox="0 0 120 120" fill="none" xmlns="http://www.w3.org/2000/svg">
<path fill-rule="evenodd" clip-rule="evenodd" d="M19.6386 93.727C18.1535 98.11 22.3013 102.311 26.7029 100.882L89.6589 80.4456C90.6439 80.1259 91.1831 79.0683 90.8634 78.0833C90.5437 77.0984 89.486 76.5591 88.5011 76.8789L25.545 97.3156C24.0778 97.7919 22.6952 96.3915 23.1903 94.9305L46.035 27.5106C46.481 26.1943 48.154 25.8037 49.1367 26.7865L95.2512 72.901C97.4479 75.0977 101.009 75.0977 103.206 72.901L107.847 68.2606C110.043 66.0639 110.043 62.5024 107.847 60.3057L58.9301 11.3892C57.3888 9.84796 54.8899 9.84796 53.3487 11.3892L48.1844 16.5535C47.4522 17.2857 47.4522 18.4729 48.1844 19.2051C48.9167 19.9373 50.1039 19.9373 50.8361 19.2051L56.0003 14.0409C56.0771 13.9641 56.2017 13.9641 56.2785 14.0409L105.195 62.9573C105.927 63.6896 105.927 64.8768 105.195 65.609L100.555 70.2494C99.8223 70.9816 98.6351 70.9816 97.9029 70.2494L51.7883 24.1348C48.8401 21.1866 43.8214 22.3583 42.4834 26.3071L19.6386 93.727ZM41.5553 73.5639C43.0198 72.0995 45.3942 72.0995 46.8586 73.5639C48.3231 75.0284 48.3231 77.4028 46.8586 78.8672C45.3942 80.3317 43.0198 80.3317 41.5553 78.8672C40.0908 77.4028 40.0908 75.0284 41.5553 73.5639ZM65.4202 65.609C66.8846 64.1445 69.259 64.1445 70.7235 65.609C72.1879 67.0734 72.1879 69.4478 70.7235 70.9123C69.259 72.3768 66.8846 72.3768 65.4202 70.9123C63.9557 69.4478 63.9557 67.0734 65.4202 65.609ZM49.5103 49.6991C50.9747 48.2346 53.3491 48.2346 54.8136 49.6991C56.278 51.1635 56.278 53.5379 54.8136 55.0024C53.3491 56.4669 50.9747 56.4669 49.5103 55.0024C48.0458 53.5379 48.0458 51.1635 49.5103 49.6991ZM46.8586 47.0474C49.7875 44.1185 54.5363 44.1185 57.4652 47.0474C60.3942 49.9764 60.3942 54.7251 57.4652 57.654C54.5363 60.583 49.7875 60.583 46.8586 57.654C43.9297 54.7251 43.9297 49.9764 46.8586 47.0474ZM73.3751 62.9573C70.4462 60.0284 65.6975 60.0284 62.7685 62.9573C59.8396 65.8863 59.8396 70.635 62.7685 73.5639C65.6975 76.4929 70.4462 76.4929 73.3751 73.5639C76.3041 70.635 76.3041 65.8863 73.3751 62.9573ZM49.5103 70.9123C46.5813 67.9834 41.8326 67.9834 38.9037 70.9123C35.9747 73.8412 35.9747 78.5899 38.9037 81.5189C41.8326 84.4478 46.5813 84.4478 49.5103 81.5189C52.4392 78.5899 52.4392 73.8412 49.5103 70.9123Z" fill="#895129"/>
</svg>
