<svg width="121" height="121" viewBox="0 0 121 121" fill="none" xmlns="http://www.w3.org/2000/svg">
<path fill-rule="evenodd" clip-rule="evenodd" d="M28.2559 26.3723C28.2559 21.1705 32.4728 16.9536 37.6746 16.9536H82.8841C88.0859 16.9536 92.3028 21.1705 92.3028 26.3723V26.6097C95.5526 27.4461 97.954 30.3962 97.954 33.9072C97.954 37.4233 95.5457 40.3768 92.2886 41.2084C92.3058 41.3468 92.3078 41.4892 92.293 41.6339L86.124 101.913C86.0181 102.948 85.0933 103.701 84.0583 103.595C83.0234 103.49 82.2702 102.565 82.3762 101.53L88.5255 41.4421H32.0332L37.8362 98.1458C37.9346 99.1069 38.7441 99.8378 39.7102 99.8378H73.4655C74.5058 99.8378 75.3492 100.681 75.3492 101.722C75.3492 102.762 74.5058 103.605 73.4655 103.605H39.7102C36.8119 103.605 34.3834 101.413 34.0884 98.5294L28.2657 41.6339C28.2509 41.4893 28.2529 41.3468 28.2701 41.2084C25.013 40.3768 22.6047 37.4233 22.6047 33.9072C22.6047 30.3962 25.0061 27.4461 28.2559 26.6097V26.3723ZM82.8841 20.7211C86.0052 20.7211 88.5353 23.2512 88.5353 26.3723H32.0234C32.0234 23.2512 34.5535 20.7211 37.6746 20.7211H82.8841ZM30.1397 30.1397H90.419C92.4998 30.1397 94.1865 31.8265 94.1865 33.9072C94.1865 35.9879 92.4998 37.6747 90.419 37.6747H30.1397C28.0589 37.6747 26.3722 35.9879 26.3722 33.9072C26.3722 31.8265 28.0589 30.1397 30.1397 30.1397Z" fill="#895129"/>
<path d="M52.7444 71.5818C52.7444 67.4204 56.1179 64.0469 60.2794 64.0469C64.4408 64.0469 67.8143 67.4204 67.8143 71.5818C67.8143 74.711 65.9064 77.3989 63.183 78.5375C62.2231 78.9387 61.7703 80.0421 62.1716 81.002C62.5728 81.9619 63.6763 82.4147 64.6361 82.0134C68.712 80.3094 71.5817 76.283 71.5817 71.5818C71.5817 65.3397 66.5215 60.2794 60.2794 60.2794C54.0372 60.2794 48.977 65.3397 48.977 71.5818C48.977 76.5059 52.1248 80.6899 56.5121 82.2406C57.4929 82.5873 58.5692 82.0732 58.9159 81.0923C59.2626 80.1114 58.7484 79.0352 57.7676 78.6885C54.8385 77.6532 52.7444 74.8596 52.7444 71.5818Z" fill="#895129"/>
</svg>
