<svg width="121" height="121" viewBox="0 0 121 121" fill="none" xmlns="http://www.w3.org/2000/svg">
<path fill-rule="evenodd" clip-rule="evenodd" d="M60.0614 9.38464C56.9516 9.38464 54.4307 11.9056 54.4307 15.0154V24.4327C52.7027 24.7439 51.0068 25.1987 49.3661 25.7933C45.9694 27.0244 42.8682 28.8341 40.2449 31.1294C37.6212 33.4252 35.5245 36.1643 34.0883 39.1981C33.1999 41.0749 32.5763 43.0391 32.2298 45.0461H30.0307C27.9575 45.0461 26.2769 46.7268 26.2769 48.8V52.5538C26.2769 54.627 27.9575 56.3077 30.0307 56.3077H31.9076C31.9076 56.3463 31.9088 56.3851 31.9112 56.4242L35.1958 109.211C35.3804 112.179 37.8417 114.492 40.8156 114.492H71.323C72.3595 114.492 73.1999 113.652 73.1999 112.615C73.1999 111.579 72.3595 110.738 71.323 110.738H40.8156C39.8243 110.738 39.0039 109.967 38.9424 108.978L36.3658 67.5692H76.9537C77.9903 67.5692 78.8306 66.7289 78.8306 65.6923C78.8306 64.6557 77.9903 63.8153 76.9537 63.8153H36.1322L35.6651 56.3077H84.4572L80.7117 112.49C80.6428 113.525 81.4253 114.419 82.4596 114.488C83.4939 114.557 84.3883 113.774 84.4572 112.74L88.2111 56.4325C88.2139 56.3906 88.2153 56.349 88.2153 56.3077H90.0922C92.1653 56.3077 93.846 54.627 93.846 52.5538V48.8C93.846 46.7268 92.1653 45.0461 90.0922 45.0461H87.8931C87.5465 43.0391 86.923 41.0749 86.0345 39.1981C84.5984 36.1643 82.5017 33.4252 79.878 31.1295C77.2547 28.8341 74.1535 27.0244 70.7567 25.7933C69.1161 25.1987 67.4202 24.7439 65.6922 24.4327V15.0154C65.6922 11.9056 63.1712 9.38464 60.0614 9.38464ZM61.9383 23.986V15.0154C61.9383 13.9788 61.098 13.1385 60.0614 13.1385C59.0248 13.1385 58.1845 13.9788 58.1845 15.0154V23.986C58.8085 23.9493 59.4345 23.9308 60.0614 23.9308C60.6883 23.9308 61.3143 23.9493 61.9383 23.986ZM58.1845 27.7473C58.8079 27.7056 59.434 27.6846 60.0614 27.6846C60.6889 27.6846 61.315 27.7056 61.9383 27.7473V45.0461H58.1845V27.7473ZM54.4307 28.2554C53.1399 28.5206 51.8738 28.8772 50.6453 29.3225C47.6659 30.4023 44.9736 31.9798 42.7168 33.9545C40.4605 35.9288 38.6861 38.259 37.4812 40.8043C36.8317 42.1762 36.3535 43.5982 36.0508 45.0461L54.4307 45.0461V28.2554ZM65.6922 45.0461V28.2554C66.9829 28.5207 68.249 28.8772 69.4776 29.3225C72.4569 30.4023 75.1492 31.9798 77.406 33.9545C79.6624 35.9288 81.4368 38.259 82.6417 40.8043C83.2911 42.1762 83.7693 43.5982 84.0721 45.0461L65.6922 45.0461ZM30.0307 48.8H90.0922V52.5538H30.0307V48.8Z" fill="#895129"/>
<path fill-rule="evenodd" clip-rule="evenodd" d="M65.6922 76.9538C65.6922 80.0636 63.1712 82.5846 60.0614 82.5846C56.9516 82.5846 54.4307 80.0636 54.4307 76.9538C54.4307 73.844 56.9516 71.323 60.0614 71.323C63.1712 71.323 65.6922 73.844 65.6922 76.9538ZM61.9383 76.9538C61.9383 77.9904 61.098 78.8307 60.0614 78.8307C59.0248 78.8307 58.1845 77.9904 58.1845 76.9538C58.1845 75.9172 59.0248 75.0769 60.0614 75.0769C61.098 75.0769 61.9383 75.9172 61.9383 76.9538Z" fill="#895129"/>
<path fill-rule="evenodd" clip-rule="evenodd" d="M58.8602 90.6041C58.8602 93.7139 56.3392 96.2348 53.2294 96.2348C50.1196 96.2348 47.5986 93.7139 47.5986 90.6041C47.5986 87.4943 50.1196 84.9733 53.2294 84.9733C56.3392 84.9733 58.8602 87.4943 58.8602 90.6041ZM55.1063 90.6041C55.1063 91.6407 54.266 92.481 53.2294 92.481C52.1928 92.481 51.3525 91.6407 51.3525 90.6041C51.3525 89.5675 52.1928 88.7272 53.2294 88.7272C54.266 88.7272 55.1063 89.5675 55.1063 90.6041Z" fill="#895129"/>
<path fill-rule="evenodd" clip-rule="evenodd" d="M52.0282 103.231C52.0282 106.34 49.5072 108.861 46.3974 108.861C43.2877 108.861 40.7667 106.34 40.7667 103.231C40.7667 100.121 43.2877 97.5999 46.3974 97.5999C49.5072 97.5999 52.0282 100.121 52.0282 103.231ZM48.2744 103.231C48.2744 104.267 47.434 105.108 46.3974 105.108C45.3609 105.108 44.5205 104.267 44.5205 103.231C44.5205 102.194 45.3609 101.354 46.3974 101.354C47.434 101.354 48.2744 102.194 48.2744 103.231Z" fill="#895129"/>
<path fill-rule="evenodd" clip-rule="evenodd" d="M65.6786 103.231C65.6786 106.34 63.1576 108.861 60.0478 108.861C56.938 108.861 54.417 106.34 54.417 103.231C54.417 100.121 56.938 97.5999 60.0478 97.5999C63.1576 97.5999 65.6786 100.121 65.6786 103.231ZM61.9247 103.231C61.9247 104.267 61.0844 105.108 60.0478 105.108C59.0112 105.108 58.1709 104.267 58.1709 103.231C58.1709 102.194 59.0112 101.354 60.0478 101.354C61.0844 101.354 61.9247 102.194 61.9247 103.231Z" fill="#895129"/>
<path fill-rule="evenodd" clip-rule="evenodd" d="M73.6981 108.861C76.8079 108.861 79.3289 106.34 79.3289 103.231C79.3289 100.121 76.8079 97.5999 73.6981 97.5999C70.5883 97.5999 68.0674 100.121 68.0674 103.231C68.0674 106.34 70.5883 108.861 73.6981 108.861ZM73.6981 105.108C74.7347 105.108 75.575 104.267 75.575 103.231C75.575 102.194 74.7347 101.354 73.6981 101.354C72.6615 101.354 71.8212 102.194 71.8212 103.231C71.8212 104.267 72.6615 105.108 73.6981 105.108Z" fill="#895129"/>
<path fill-rule="evenodd" clip-rule="evenodd" d="M66.8798 96.2348C69.9895 96.2348 72.5105 93.7139 72.5105 90.6041C72.5105 87.4943 69.9895 84.9733 66.8798 84.9733C63.77 84.9733 61.249 87.4943 61.249 90.6041C61.249 93.7139 63.77 96.2348 66.8798 96.2348ZM66.8798 92.481C67.9164 92.481 68.7567 91.6407 68.7567 90.6041C68.7567 89.5675 67.9164 88.7272 66.8798 88.7272C65.8432 88.7272 65.0028 89.5675 65.0028 90.6041C65.0028 91.6407 65.8432 92.481 66.8798 92.481Z" fill="#895129"/>
</svg>
