<svg width="120" height="120" viewBox="0 0 120 120" fill="none" xmlns="http://www.w3.org/2000/svg">
<path fill-rule="evenodd" clip-rule="evenodd" d="M65.625 73.125C65.625 76.2316 63.1066 78.75 60 78.75C56.8934 78.75 54.375 76.2316 54.375 73.125C54.375 70.0184 56.8934 67.5 60 67.5C63.1066 67.5 65.625 70.0184 65.625 73.125ZM61.875 73.125C61.875 74.1605 61.0355 75 60 75C58.9645 75 58.125 74.1605 58.125 73.125C58.125 72.0895 58.9645 71.25 60 71.25C61.0355 71.25 61.875 72.0895 61.875 73.125Z" fill="#895129"/>
<path fill-rule="evenodd" clip-rule="evenodd" d="M52.5 84.375C52.5 87.4816 49.9816 90 46.875 90C43.7684 90 41.25 87.4816 41.25 84.375C41.25 81.2684 43.7684 78.75 46.875 78.75C49.9816 78.75 52.5 81.2684 52.5 84.375ZM48.75 84.375C48.75 85.4105 47.9105 86.25 46.875 86.25C45.8395 86.25 45 85.4105 45 84.375C45 83.3395 45.8395 82.5 46.875 82.5C47.9105 82.5 48.75 83.3395 48.75 84.375Z" fill="#895129"/>
<path fill-rule="evenodd" clip-rule="evenodd" d="M60 101.25C63.1066 101.25 65.625 98.7316 65.625 95.625C65.625 92.5184 63.1066 90 60 90C56.8934 90 54.375 92.5184 54.375 95.625C54.375 98.7316 56.8934 101.25 60 101.25ZM61.875 95.625C61.875 96.6605 61.0355 97.5 60 97.5C58.9645 97.5 58.125 96.6605 58.125 95.625C58.125 94.5895 58.9645 93.75 60 93.75C61.0355 93.75 61.875 94.5895 61.875 95.625Z" fill="#895129"/>
<path fill-rule="evenodd" clip-rule="evenodd" d="M78.75 84.375C78.75 87.4816 76.2316 90 73.125 90C70.0184 90 67.5 87.4816 67.5 84.375C67.5 81.2684 70.0184 78.75 73.125 78.75C76.2316 78.75 78.75 81.2684 78.75 84.375ZM75 84.375C75 85.4105 74.1605 86.25 73.125 86.25C72.0895 86.25 71.25 85.4105 71.25 84.375C71.25 83.3395 72.0895 82.5 73.125 82.5C74.1605 82.5 75 83.3395 75 84.375Z" fill="#895129"/>
<path fill-rule="evenodd" clip-rule="evenodd" d="M33.75 13.125C32.7145 13.125 31.875 13.9645 31.875 15C31.875 16.0355 32.7145 16.875 33.75 16.875H48.75C51.8566 16.875 54.375 19.3934 54.375 22.5V35.625H33.75C30.6434 35.625 28.125 38.1434 28.125 41.25V45C28.125 47.4685 29.7151 49.5656 31.9269 50.323L33.7733 105.189C33.8753 108.22 36.3622 110.625 39.3952 110.625H80.6049C83.6378 110.625 86.1247 108.22 86.2267 105.189L88.125 48.7815V41.25C88.125 38.1434 85.6066 35.625 82.5 35.625H58.125V22.5C58.125 17.3223 53.9277 13.125 48.75 13.125H33.75ZM33.75 39.375H82.5C83.5355 39.375 84.375 40.2145 84.375 41.25L84.375 48.7185L84.1423 55.6331C83.5813 55.5203 82.9498 55.4127 82.2638 55.327C79.5935 54.9932 75.9589 54.972 72.4286 56.3841C66.6257 58.7053 60.8743 58.7053 55.0714 56.3841C49.2752 54.0657 42.0359 53.7538 35.8515 55.4485L35.6892 50.625H73.125C74.1605 50.625 75 49.7855 75 48.75C75 47.7145 74.1605 46.875 73.125 46.875H33.75C32.7145 46.875 31.875 46.0355 31.875 45V41.25C31.875 40.2145 32.7145 39.375 33.75 39.375ZM81.7987 59.048C82.6511 59.1546 83.4049 59.3006 84.0141 59.4417L82.4788 105.063C82.4448 106.073 81.6158 106.875 80.6049 106.875H39.3952C38.3842 106.875 37.5552 106.073 37.5212 105.063L35.9817 59.3185C41.5476 57.5619 48.3747 57.7443 53.6786 59.8659C60.3757 62.5447 67.1243 62.5447 73.8214 59.8659C76.5411 58.778 79.469 58.7568 81.7987 59.048Z" fill="#895129"/>
</svg>
